<?xml version="1.0" encoding="utf-8"?>
<svg width="130px" height="41px" viewBox="0 0 130 41" version="1.1" xmlns:xlink="http://www.w3.org/1999/xlink" xmlns="http://www.w3.org/2000/svg">
  <defs>
    <path d="M0 0.000407374L130 0.000407374L130 41L0 41L0 0.000407374Z" id="path_1" />
    <clipPath id="mask_1">
      <use xlink:href="#path_1" />
    </clipPath>
  </defs>
  <g id="airbnb">
    <path d="M0 0.000407374L130 0.000407374L130 41L0 41L0 0.000407374Z" id="Background" fill="#FFFFFF" fill-opacity="0" fill-rule="evenodd" stroke="none" />
    <path d="M68.5143 10.3018C68.5143 11.7794 67.3361 12.9692 65.8739 12.9692C64.4117 12.9692 63.2343 11.7794 63.2343 10.3018C63.2343 8.82421 64.3715 7.63442 65.8739 7.63442C67.3774 7.67542 68.5143 8.86561 68.5143 10.3018L68.5143 10.3018ZM57.6298 15.6783L57.6298 16.3351C57.6298 16.3351 56.3713 14.6927 53.6908 14.6927C49.2645 14.6927 45.8119 18.0993 45.8119 22.8187C45.8119 27.4974 49.2239 30.9446 53.6908 30.9446C56.4119 30.9446 57.6298 29.262 57.6298 29.262L57.6298 29.9594C57.6298 30.2878 57.874 30.5334 58.1986 30.5334L61.4877 30.5334L61.4877 15.1019L58.1986 15.1019C57.8741 15.1031 57.6298 15.3909 57.6298 15.6783L57.6298 15.6783ZM57.6299 25.5685C57.0213 26.4717 55.8026 27.2515 54.3408 27.2515C51.7418 27.2515 49.7514 25.6099 49.7514 22.8187C49.7514 20.0279 51.7418 18.3863 54.3408 18.3863C55.7624 18.3863 57.0619 19.2071 57.6299 20.0689L57.6299 25.5685L57.6299 25.5685ZM63.9249 15.1031L67.8233 15.1031L67.8233 30.5346L63.9249 30.5346L63.9249 15.1031L63.9249 15.1031ZM122.162 14.6923C119.482 14.6923 118.223 16.3347 118.223 16.3347L118.223 7.67539L114.324 7.67539L114.324 30.5347L117.614 30.5347C117.939 30.5347 118.182 30.2473 118.182 29.9599L118.182 29.2625C118.182 29.2625 119.441 30.9451 122.121 30.9451C126.548 30.9451 130 27.4987 130 22.8199C130 18.1412 126.548 14.6923 122.162 14.6923L122.162 14.6923ZM121.513 27.2101C120.009 27.2101 118.832 26.4311 118.223 25.5275L118.223 20.0279C118.832 19.2071 120.132 18.3453 121.513 18.3453C124.112 18.3453 126.102 19.9869 126.102 22.7777C126.102 25.5685 124.112 27.2101 121.513 27.2101L121.513 27.2101ZM112.294 21.3829L112.294 30.5756L108.395 30.5756L108.395 21.8339C108.395 19.2899 107.583 18.2633 105.391 18.2633C104.214 18.2633 102.995 18.8791 102.222 19.7823L102.222 30.535L98.3243 30.535L98.3243 15.1035L101.41 15.1035C101.735 15.1035 101.978 15.3909 101.978 15.6783L101.978 16.3351C103.116 15.1445 104.618 14.6927 106.12 14.6927C107.826 14.6927 109.248 15.1859 110.385 16.1707C111.765 17.3199 112.294 18.7971 112.294 21.3829L112.294 21.3829ZM88.8602 14.6923C86.1805 14.6923 84.9212 16.3347 84.9212 16.3347L84.9212 7.67539L81.0227 7.67539L81.0227 30.5347L84.3118 30.5347C84.6368 30.5347 84.8806 30.2473 84.8806 29.9599L84.8806 29.2625C84.8806 29.2625 86.1399 30.9451 88.8196 30.9451C93.2467 30.9451 96.6985 27.4987 96.6985 22.8199C96.7391 18.1408 93.2873 14.6923 88.8602 14.6923L88.8602 14.6923ZM88.2103 27.2101C86.7079 27.2101 85.5305 26.4311 84.9212 25.5275L84.9212 20.0279C85.5305 19.2071 86.83 18.3453 88.2103 18.3453C90.81 18.3453 92.7996 19.9869 92.7996 22.7777C92.7996 25.5685 90.81 27.2101 88.2103 27.2101L88.2103 27.2101ZM77.6516 14.6923C78.8289 14.6923 79.4383 14.8981 79.4383 14.8981L79.4383 18.5503C79.4383 18.5503 76.1894 17.4421 74.1592 19.7819L74.1592 30.5752L70.2599 30.5752L70.2599 15.1031L73.5498 15.1031C73.8748 15.1031 74.1178 15.3905 74.1178 15.6779L74.1178 16.3347C74.8497 15.4725 76.4336 14.6923 77.6516 14.6923L77.6516 14.6923ZM37.1622 29.1391C36.9594 28.6467 36.7561 28.1133 36.5532 27.6615C36.2279 26.9231 35.9029 26.2249 35.6193 25.5685L35.5787 25.5275C32.7761 19.3711 29.7714 13.1335 26.6032 6.97798L26.4815 6.73118C26.1483 6.09265 25.8236 5.44966 25.5075 4.80233C25.1009 4.06297 24.6951 3.284 24.0452 2.54479C22.7457 0.903206 20.8774 0 18.8878 0C16.8568 0 15.0295 0.903206 13.6899 2.46239C13.0805 3.20077 12.6334 3.98057 12.2277 4.71979C11.9106 5.36695 11.5858 6.01018 11.2533 6.64934L11.1314 6.89558C8.00424 13.0511 4.95858 19.2891 2.15633 25.4451L2.11535 25.5267C1.83135 26.1843 1.50598 26.8817 1.181 27.6196C0.978144 28.0715 0.775286 28.5639 0.57244 29.0972C0.0442011 30.6154 -0.118489 32.052 0.0851815 33.53C0.531879 36.6082 2.56205 39.1928 5.36468 40.3428C6.42075 40.7946 7.51739 40.9996 8.65419 40.9996C8.97915 40.9996 9.38487 40.9586 9.71025 40.9172C11.0507 40.7532 12.4313 40.3022 13.7718 39.5224C15.4368 38.5782 17.0207 37.2244 18.8075 35.2545C20.5942 37.2244 22.2187 38.5782 23.8431 39.5224C25.184 40.3022 26.5642 40.7532 27.9043 40.9172C28.2293 40.959 28.6358 40.9996 28.9608 40.9996C30.098 40.9996 31.2348 40.7946 32.2498 40.3428C35.0931 39.1928 37.0827 36.5672 37.5298 33.53C37.8523 32.0939 37.69 30.6581 37.1622 29.1391L37.1622 29.1391ZM18.8469 31.273C16.6536 28.4823 15.232 25.8559 14.7452 23.6403C14.5423 22.6961 14.5013 21.8753 14.6235 21.1365C14.7042 20.4797 14.9484 19.9049 15.2734 19.4125C16.0451 18.3052 17.3446 17.6069 18.8473 17.6069C20.3504 17.6069 21.6905 18.2637 22.4216 19.4125C22.7466 19.9049 22.99 20.4801 23.072 21.1365C23.1933 21.8757 23.1527 22.7371 22.9498 23.6403C22.461 25.8149 21.0393 28.4417 18.8469 31.273L18.8469 31.273ZM35.0501 33.2021C34.7661 35.3361 33.3445 37.1835 31.3549 38.0043C30.3804 38.4143 29.3239 38.5377 28.2686 38.4143C27.2536 38.2908 26.2377 37.9624 25.1824 37.3475C23.7202 36.5258 22.2585 35.2545 20.5525 33.3661C23.2326 30.0423 24.857 27.0047 25.4664 24.2967C25.7508 23.0241 25.7918 21.8753 25.6693 20.8077C25.5074 19.7819 25.1414 18.8377 24.573 18.0169C23.3133 16.1695 21.2012 15.1032 18.8464 15.1032C16.4917 15.1032 14.3796 16.2114 13.1207 18.0169C12.5523 18.8377 12.1863 19.7819 12.024 20.8077C11.8617 21.8753 11.9019 23.0651 12.2269 24.2967C12.8359 27.0047 14.5009 30.0829 17.1404 33.4071C15.4754 35.295 13.9726 36.5677 12.5105 37.3884C11.4544 38.0043 10.4397 38.3326 9.42465 38.4552C8.32842 38.5786 7.27196 38.4143 6.33801 38.0453C4.34842 37.2244 2.92681 35.377 2.6428 33.2431C2.52109 32.2173 2.60182 31.1915 3.00835 30.0423C3.12967 29.6315 3.33332 29.2215 3.53618 28.7291C3.82057 28.0723 4.14475 27.3741 4.47013 26.6767L4.51111 26.5951C7.31294 20.4797 10.318 14.2417 13.4452 8.16819L13.567 7.92139C13.8923 7.30641 14.2173 6.64961 14.5419 6.03379C14.8668 5.37701 15.232 4.76119 15.6791 4.2274C16.5319 3.24342 17.6687 2.70921 18.928 2.70921C20.1873 2.70921 21.3241 3.24342 22.1769 4.2274C22.624 4.76243 22.9892 5.37823 23.3141 6.03379C23.6395 6.64961 23.9645 7.30641 24.2887 7.92139L24.4108 8.16819C27.4902 14.2669 30.4553 20.4238 33.3045 26.6356L33.3047 26.6771C33.6301 27.3347 33.9141 28.0727 34.2391 28.7303C34.442 29.2219 34.6452 29.6319 34.7669 30.0427C35.0911 31.1086 35.2128 32.1353 35.0501 33.202L35.0501 33.2021Z" id="Shape" fill="#89898B" fill-rule="evenodd" stroke="none" />
  </g>
</svg>