<?xml version="1.0" encoding="utf-8"?>
<svg width="381px" height="100px" viewBox="0 0 381 100" version="1.1" xmlns:xlink="http://www.w3.org/1999/xlink" xmlns="http://www.w3.org/2000/svg">
  <defs>
    <path d="M56.7982 79.0628L21.5962 34.4215L35.042 21.0002L78.5538 21.0001L91.9999 34.4213L56.7982 79.0628Z" id="path_1" />
    <path d="M56.279 66.0001L32.5962 35.9669L41.6421 26.9374L70.9154 26.9373L79.9615 35.9667L56.279 66.0001Z" id="path_2" />
    <clipPath id="clip_1">
      <use xlink:href="#path_1" />
    </clipPath>
    <clipPath id="clip_2">
      <use xlink:href="#path_2" />
    </clipPath>
  </defs>
  <g id="Group">
    <path d="M0 0L381 0L381 100L0 100L0 0Z" id="Rectangle" fill="#D3D3D3" fill-opacity="0" fill-rule="evenodd" stroke="none" />
    <g id="Polygon">
      <use stroke="none" fill="#D3D3D3" fill-opacity="0" xlink:href="#path_1" fill-rule="evenodd" />
      <g clip-path="url(#clip_1)">
        <use xlink:href="#path_1" fill="none" stroke="#CD5401" stroke-width="6" />
      </g>
    </g>
    <g id="Africa's-Leading-Tech-Conferen" transform="translate(104 21)">
      <g id="Africa's-Leading-Tech-" fill="#171716">
        <path d="M140.262 24.0375Q139.662 24.0375 139.475 23.475L139.225 22.2375Q138.825 22.6875 138.387 23.05Q137.95 23.4125 137.444 23.675Q136.938 23.9375 136.356 24.0813Q135.775 24.225 135.1 24.225Q134.05 24.225 133.175 23.7875Q132.3 23.35 131.669 22.5188Q131.037 21.6875 130.694 20.4625Q130.35 19.2375 130.35 17.6625Q130.35 16.2375 130.737 15.0125Q131.125 13.7875 131.85 12.8875Q132.575 11.9875 133.587 11.4812Q134.6 10.975 135.862 10.975Q136.938 10.975 137.7 11.3187Q138.462 11.6625 139.063 12.2375L139.063 5.4625L142.15 5.4625L142.15 24.0375L140.262 24.0375ZM224.4 5.4625L224.4 24.0375L227.487 24.0375L227.487 14.7625Q228.112 14.1375 228.812 13.775Q229.512 13.4125 230.312 13.4125Q231.4 13.4125 231.944 14.0562Q232.487 14.7 232.487 15.875L232.487 24.0375L235.575 24.0375L235.575 15.875Q235.575 14.8 235.294 13.9063Q235.012 13.0125 234.469 12.3687Q233.925 11.725 233.112 11.3687Q232.3 11.0125 231.25 11.0125Q230.037 11.0125 229.137 11.45Q228.237 11.8875 227.487 12.6L227.487 5.4625L224.4 5.4625ZM42.125 7.475Q42.125 7.875 41.9625 8.225Q41.8 8.575 41.5313 8.8375Q41.2625 9.1 40.9 9.25625Q40.5375 9.4125 40.125 9.4125Q39.725 9.4125 39.3687 9.25625Q39.0125 9.1 38.75 8.8375Q38.4875 8.575 38.3312 8.225Q38.175 7.875 38.175 7.475Q38.175 7.0625 38.3312 6.7Q38.4875 6.3375 38.75 6.075Q39.0125 5.8125 39.3687 5.65625Q39.725 5.5 40.125 5.5Q40.5375 5.5 40.9 5.65625Q41.2625 5.8125 41.5313 6.075Q41.8 6.3375 41.9625 6.7Q42.125 7.0625 42.125 7.475ZM149.075 8.225Q149.237 7.875 149.237 7.475Q149.237 7.0625 149.075 6.7Q148.912 6.3375 148.644 6.075Q148.375 5.8125 148.012 5.65625Q147.65 5.5 147.237 5.5Q146.837 5.5 146.481 5.65625Q146.125 5.8125 145.862 6.075Q145.6 6.3375 145.444 6.7Q145.287 7.0625 145.287 7.475Q145.287 7.875 145.444 8.225Q145.6 8.575 145.862 8.8375Q146.125 9.1 146.481 9.25625Q146.837 9.4125 147.237 9.4125Q147.65 9.4125 148.012 9.25625Q148.375 9.1 148.644 8.8375Q148.912 8.575 149.075 8.225ZM19.95 24.0375L19.95 13.5375L18.8375 13.3625Q18.475 13.3 18.2563 13.1125Q18.0375 12.925 18.0375 12.5875L18.0375 11.325L19.95 11.325L19.95 10.375Q19.95 9.275 20.2813 8.4Q20.6125 7.525 21.2313 6.9125Q21.85 6.3 22.7375 5.975Q23.625 5.65 24.7375 5.65Q25.625 5.65 26.3875 5.8875L26.325 7.4375Q26.3 7.8 25.9875 7.8875Q25.675 7.975 25.2625 7.975Q24.7125 7.975 24.2813 8.09375Q23.85 8.2125 23.55 8.50625Q23.25 8.8 23.0938 9.28125Q22.9375 9.7625 22.9375 10.475L22.9375 11.325L26.275 11.325L26.275 13.525L23.0375 13.525L23.0375 24.0375L19.95 24.0375ZM17.7125 24.0375L15.1125 24.0375Q14.675 24.0375 14.3938 23.8188Q14.1125 23.6 13.9875 23.275L12.6375 19.5875L5.15 19.5875L3.8 23.275Q3.7 23.5625 3.40625 23.8Q3.1125 24.0375 2.6875 24.0375L0.075 24.0375L7.175 5.9625L10.6125 5.9625L17.7125 24.0375ZM72.8375 9.5625L72.8375 5.9625L70.15 5.9625L70.15 9.5625L70.425 11.5125Q70.5 12.0625 70.7625 12.3562Q71.025 12.65 71.475 12.65Q72 12.65 72.2312 12.3562Q72.4625 12.0625 72.55 11.5125L72.8375 9.5625ZM102.637 21.2625L95.4 21.2625L95.4 5.9625L92.0375 5.9625L92.0375 24.0375L102.637 24.0375L102.637 21.2625ZM197.15 5.9625L197.15 8.725L191.712 8.725L191.712 24.0375L188.35 24.0375L188.35 8.725L182.887 8.725L182.887 5.9625L197.15 5.9625ZM6.0125 17.2125L11.775 17.2125L9.575 11.2Q9.425 10.8 9.24375 10.2562Q9.0625 9.7125 8.8875 9.075Q8.7125 9.7125 8.54375 10.2625Q8.375 10.8125 8.2125 11.225L6.0125 17.2125ZM28.1625 11.2125L28.1625 24.0375L31.25 24.0375L31.25 16.05Q31.725 15.025 32.4125 14.4937Q33.1 13.9625 34.0625 13.9625Q34.6 13.9625 34.925 14.05Q35.25 14.1375 35.4375 14.1375Q35.65 14.1375 35.775 14.0437Q35.9 13.95 35.9375 13.725L36.3375 11.4125Q35.7125 10.975 34.7625 10.975Q33.6125 10.975 32.6875 11.6625Q31.7625 12.35 31.075 13.5375L30.8875 11.9875Q30.825 11.5625 30.6375 11.3875Q30.45 11.2125 29.975 11.2125L28.1625 11.2125ZM67.125 24.0375L65.7375 24.0375Q65.3 24.0375 65.05 23.9063Q64.8 23.775 64.675 23.375L64.4 22.4625Q63.9125 22.9 63.4437 23.2313Q62.975 23.5625 62.475 23.7875Q61.975 24.0125 61.4125 24.125Q60.85 24.2375 60.1625 24.2375Q59.35 24.2375 58.6625 24.0181Q57.975 23.7986 57.4813 23.3597Q56.9875 22.9207 56.7125 22.2685Q56.4375 21.6162 56.4375 20.751Q56.4375 20.0234 56.8187 19.3148Q57.2 18.6063 58.0875 18.0356Q58.975 17.465 60.45 17.0888Q61.925 16.7125 64.1125 16.7125L64.1125 15.9568Q64.1125 14.6594 63.5687 14.0359Q63.025 13.4125 61.9875 13.4125Q61.2375 13.4125 60.7375 13.5875Q60.2375 13.7625 59.8688 13.9812Q59.5 14.2 59.1875 14.375Q58.875 14.55 58.5 14.55Q58.1875 14.55 57.9625 14.3875Q57.7375 14.225 57.6 13.9875L57.0375 13Q59.25 10.975 62.375 10.975Q63.5 10.975 64.3812 11.3438Q65.2625 11.7125 65.875 12.3687Q66.4875 13.025 66.8063 13.9375Q67.125 14.85 67.125 15.9375L67.125 24.0375ZM126.813 24.0375L128.2 24.0375L128.2 15.9375Q128.2 14.85 127.881 13.9375Q127.563 13.025 126.95 12.3687Q126.338 11.7125 125.456 11.3438Q124.575 10.975 123.45 10.975Q120.325 10.975 118.113 13L118.675 13.9875Q118.813 14.225 119.037 14.3875Q119.262 14.55 119.575 14.55Q119.95 14.55 120.262 14.375Q120.575 14.2 120.944 13.9812Q121.313 13.7625 121.813 13.5875Q122.313 13.4125 123.063 13.4125Q124.1 13.4125 124.644 14.0359Q125.188 14.6594 125.188 15.9568L125.188 16.7125Q123 16.7125 121.525 17.0888Q120.05 17.465 119.162 18.0356Q118.275 18.6063 117.894 19.3148Q117.512 20.0234 117.512 20.751Q117.512 21.6162 117.787 22.2685Q118.063 22.9207 118.556 23.3597Q119.05 23.7986 119.738 24.0181Q120.425 24.2375 121.238 24.2375Q121.925 24.2375 122.488 24.125Q123.05 24.0125 123.55 23.7875Q124.05 23.5625 124.519 23.2313Q124.988 22.9 125.475 22.4625L125.75 23.375Q125.875 23.775 126.125 23.9063Q126.375 24.0375 126.813 24.0375ZM172.462 11.1563Q171.737 10.9875 170.912 10.9875Q169.812 10.9875 168.881 11.275Q167.95 11.5625 167.269 12.1062Q166.587 12.65 166.206 13.4187Q165.825 14.1875 165.825 15.1375Q165.825 16.3125 166.381 17.1875Q166.937 18.0625 167.912 18.5875Q167.487 18.8 167.175 19.0688Q166.862 19.3375 166.656 19.6375Q166.45 19.9375 166.35 20.2437Q166.25 20.55 166.25 20.8375Q166.25 21.5375 166.537 21.975Q166.825 22.4125 167.3 22.675Q166.325 23.0375 165.775 23.65Q165.225 24.2625 165.225 25.1625Q165.225 25.825 165.575 26.4375Q165.925 27.05 166.631 27.5188Q167.337 27.9875 168.412 28.2688Q169.487 28.55 170.95 28.55Q172.425 28.55 173.575 28.1675Q174.725 27.785 175.519 27.1579Q176.312 26.5309 176.731 25.7283Q177.15 24.9258 177.15 24.0729Q177.15 23.1574 176.794 22.5743Q176.437 21.9912 175.856 21.6525Q175.275 21.3139 174.537 21.1571Q173.8 21.0004 173.025 20.9377Q172.25 20.875 171.512 20.875Q170.775 20.875 170.194 20.7994Q169.612 20.7238 169.256 20.5413Q168.9 20.3588 168.9 19.9684Q168.9 19.5152 169.5 19.15Q170.187 19.2875 170.912 19.2875Q171.987 19.2875 172.906 18.9937Q173.825 18.7 174.494 18.1625Q175.162 17.625 175.544 16.8563Q175.925 16.0875 175.925 15.1375Q175.925 14.7375 175.856 14.375Q175.787 14.0125 175.662 13.6875L176.812 13.475Q177.175 13.4125 177.325 13.25Q177.475 13.0875 177.475 12.8L177.475 11.65L173.787 11.65Q173.187 11.325 172.462 11.1563ZM53.8938 14.2Q54.025 14.1 54.1625 13.925L54.975 12.8Q54.1125 11.9375 53.0313 11.475Q51.95 11.0125 50.5125 11.0125Q49 11.0125 47.8375 11.5125Q46.675 12.0125 45.8875 12.8937Q45.1 13.775 44.6937 14.9812Q44.2875 16.1875 44.2875 17.6Q44.2875 19.175 44.7438 20.4063Q45.2 21.6375 45.9813 22.4875Q46.7625 23.3375 47.8125 23.7813Q48.8625 24.225 50.05 24.225Q50.725 24.225 51.4125 24.125Q52.1 24.025 52.7438 23.7813Q53.3875 23.5375 53.9875 23.1313Q54.5875 22.725 55.1 22.125L54.2125 21Q54.025 20.7125 53.65 20.7125Q53.3625 20.7125 53.1312 20.8937Q52.9 21.075 52.5875 21.2938Q52.275 21.5125 51.8187 21.6938Q51.3625 21.875 50.625 21.875Q49.8875 21.875 49.3 21.5938Q48.7125 21.3125 48.3 20.7688Q47.8875 20.225 47.6688 19.425Q47.45 18.625 47.45 17.6Q47.45 16.6125 47.65 15.8313Q47.85 15.05 48.2562 14.5Q48.6625 13.95 49.275 13.6563Q49.8875 13.3625 50.7 13.3625Q51.3375 13.3625 51.7687 13.5063Q52.2 13.65 52.5125 13.8312Q52.825 14.0125 53.05 14.1563Q53.275 14.3 53.5125 14.3Q53.7625 14.3 53.8938 14.2ZM83.725 13.7125Q83.6 13.9125 83.4625 13.9937Q83.325 14.075 83.1125 14.075Q82.8875 14.075 82.6312 13.95Q82.375 13.825 82.0375 13.6687Q81.7 13.5125 81.2687 13.3875Q80.8375 13.2625 80.25 13.2625Q79.3375 13.2625 78.8125 13.65Q78.2875 14.0375 78.2875 14.6625Q78.2875 15.075 78.5562 15.3562Q78.825 15.6375 79.2687 15.85Q79.7125 16.0625 80.275 16.2313Q80.8375 16.4 81.425 16.6Q82.0125 16.8 82.575 17.0562Q83.1375 17.3125 83.5812 17.7062Q84.025 18.1 84.2937 18.65Q84.5625 19.2 84.5625 19.975Q84.5625 20.9 84.225 21.6812Q83.8875 22.4625 83.2375 23.0313Q82.5875 23.6 81.6312 23.9188Q80.675 24.2375 79.4375 24.2375Q78.775 24.2375 78.1437 24.1187Q77.5125 24 76.9312 23.7875Q76.35 23.575 75.8562 23.2875Q75.3625 23 74.9875 22.6625L75.7 21.4875Q75.8375 21.275 76.025 21.1625Q76.2125 21.05 76.5 21.05Q76.7875 21.05 77.0437 21.2125Q77.3 21.375 77.6375 21.5625Q77.975 21.75 78.4312 21.9125Q78.8875 22.075 79.5875 22.075Q80.1375 22.075 80.5312 21.9438Q80.925 21.8125 81.1812 21.6Q81.4375 21.3875 81.5562 21.1063Q81.675 20.825 81.675 20.525Q81.675 20.075 81.4062 19.7875Q81.1375 19.5 80.6937 19.2875Q80.25 19.075 79.6812 18.9063Q79.1125 18.7375 78.5187 18.5375Q77.925 18.3375 77.3562 18.0688Q76.7875 17.8 76.3437 17.3875Q75.9 16.975 75.6312 16.375Q75.3625 15.775 75.3625 14.925Q75.3625 14.1375 75.675 13.425Q75.9875 12.7125 76.5937 12.1812Q77.2 11.65 78.1062 11.3313Q79.0125 11.0125 80.2 11.0125Q81.525 11.0125 82.6125 11.45Q83.7 11.8875 84.425 12.6L83.725 13.7125ZM110.087 11.0125Q111.3 11.0125 112.319 11.4Q113.337 11.7875 114.075 12.5313Q114.813 13.275 115.225 14.3562Q115.637 15.4375 115.637 16.825Q115.637 17.175 115.606 17.4063Q115.575 17.6375 115.494 17.7687Q115.412 17.9 115.275 17.9562Q115.137 18.0125 114.925 18.0125L107 18.0125Q107.137 19.9875 108.063 20.9125Q108.987 21.8375 110.512 21.8375Q111.262 21.8375 111.806 21.6625Q112.35 21.4875 112.756 21.275Q113.162 21.0625 113.469 20.8875Q113.775 20.7125 114.063 20.7125Q114.25 20.7125 114.387 20.7875Q114.525 20.8625 114.625 21L115.525 22.125Q115.012 22.725 114.375 23.1313Q113.737 23.5375 113.044 23.7813Q112.35 24.025 111.631 24.125Q110.912 24.225 110.237 24.225Q108.9 24.225 107.75 23.7813Q106.6 23.3375 105.75 22.4688Q104.9 21.6 104.412 20.3188Q103.925 19.0375 103.925 17.35Q103.925 16.0375 104.35 14.8813Q104.775 13.725 105.569 12.8687Q106.362 12.0125 107.506 11.5125Q108.65 11.0125 110.087 11.0125ZM152.262 24.0375L152.262 11.2125L154.15 11.2125Q154.75 11.2125 154.937 11.775L155.15 12.7875Q155.537 12.3875 155.969 12.0625Q156.4 11.7375 156.881 11.5Q157.362 11.2625 157.912 11.1375Q158.462 11.0125 159.112 11.0125Q160.162 11.0125 160.975 11.3687Q161.787 11.725 162.331 12.3687Q162.875 13.0125 163.156 13.9063Q163.437 14.8 163.437 15.875L163.437 24.0375L160.35 24.0375L160.35 15.875Q160.35 14.7 159.806 14.0562Q159.262 13.4125 158.175 13.4125Q157.375 13.4125 156.675 13.775Q155.975 14.1375 155.35 14.7625L155.35 24.0375L152.262 24.0375ZM206.644 11.4Q205.625 11.0125 204.412 11.0125Q202.975 11.0125 201.831 11.5125Q200.687 12.0125 199.894 12.8687Q199.1 13.725 198.675 14.8813Q198.25 16.0375 198.25 17.35Q198.25 19.0375 198.737 20.3188Q199.225 21.6 200.075 22.4688Q200.925 23.3375 202.075 23.7813Q203.225 24.225 204.562 24.225Q205.237 24.225 205.956 24.125Q206.675 24.025 207.369 23.7813Q208.062 23.5375 208.7 23.1313Q209.337 22.725 209.85 22.125L208.95 21Q208.85 20.8625 208.712 20.7875Q208.575 20.7125 208.387 20.7125Q208.1 20.7125 207.794 20.8875Q207.487 21.0625 207.081 21.275Q206.675 21.4875 206.131 21.6625Q205.587 21.8375 204.837 21.8375Q203.312 21.8375 202.387 20.9125Q201.462 19.9875 201.325 18.0125L209.25 18.0125Q209.462 18.0125 209.6 17.9562Q209.737 17.9 209.819 17.7687Q209.9 17.6375 209.931 17.4063Q209.962 17.175 209.962 16.825Q209.962 15.4375 209.55 14.3562Q209.137 13.275 208.4 12.5313Q207.662 11.7875 206.644 11.4ZM221.487 13.925Q221.35 14.1 221.219 14.2Q221.087 14.3 220.837 14.3Q220.6 14.3 220.375 14.1563Q220.15 14.0125 219.837 13.8312Q219.525 13.65 219.094 13.5063Q218.662 13.3625 218.025 13.3625Q217.212 13.3625 216.6 13.6563Q215.987 13.95 215.581 14.5Q215.175 15.05 214.975 15.8313Q214.775 16.6125 214.775 17.6Q214.775 18.625 214.994 19.425Q215.212 20.225 215.625 20.7688Q216.037 21.3125 216.625 21.5938Q217.212 21.875 217.95 21.875Q218.687 21.875 219.144 21.6938Q219.6 21.5125 219.912 21.2938Q220.225 21.075 220.456 20.8937Q220.687 20.7125 220.975 20.7125Q221.35 20.7125 221.537 21L222.425 22.125Q221.912 22.725 221.312 23.1313Q220.712 23.5375 220.069 23.7813Q219.425 24.025 218.737 24.125Q218.05 24.225 217.375 24.225Q216.187 24.225 215.137 23.7813Q214.087 23.3375 213.306 22.4875Q212.525 21.6375 212.069 20.4063Q211.612 19.175 211.612 17.6Q211.612 16.1875 212.019 14.9812Q212.425 13.775 213.212 12.8937Q214 12.0125 215.162 11.5125Q216.325 11.0125 217.837 11.0125Q219.275 11.0125 220.356 11.475Q221.437 11.9375 222.3 12.8L221.487 13.925ZM41.6625 11.2125L41.6625 24.0375L38.575 24.0375L38.575 11.2125L41.6625 11.2125ZM148.775 24.0375L148.775 11.2125L145.688 11.2125L145.688 24.0375L148.775 24.0375ZM171.912 17.1563Q171.487 17.3125 170.912 17.3125Q170.35 17.3125 169.919 17.1563Q169.487 17 169.206 16.7188Q168.925 16.4375 168.781 16.05Q168.637 15.6625 168.637 15.2125Q168.637 14.2625 169.206 13.7062Q169.775 13.15 170.912 13.15Q172.05 13.15 172.619 13.7062Q173.187 14.2625 173.187 15.2125Q173.187 15.675 173.044 16.0625Q172.9 16.45 172.619 16.725Q172.337 17 171.912 17.1563ZM110.15 13.225Q108.8 13.225 108.037 13.9875Q107.275 14.75 107.063 16.15L112.862 16.15Q112.862 15.55 112.7 15.0188Q112.537 14.4875 112.2 14.0875Q111.862 13.6875 111.35 13.4563Q110.837 13.225 110.15 13.225ZM202.362 13.9875Q203.125 13.225 204.475 13.225Q205.162 13.225 205.675 13.4563Q206.187 13.6875 206.525 14.0875Q206.862 14.4875 207.025 15.0188Q207.187 15.55 207.187 16.15L201.387 16.15Q201.6 14.75 202.362 13.9875ZM136.15 21.775Q137.112 21.775 137.787 21.375Q138.462 20.975 139.063 20.2375L139.063 14.4875Q138.537 13.85 137.919 13.5875Q137.3 13.325 136.587 13.325Q135.887 13.325 135.319 13.5875Q134.75 13.85 134.356 14.3813Q133.962 14.9125 133.75 15.7312Q133.537 16.55 133.537 17.6625Q133.537 18.7875 133.719 19.5688Q133.9 20.35 134.237 20.8438Q134.575 21.3375 135.063 21.5562Q135.55 21.775 136.15 21.775ZM61.125 22.1125Q61.6 22.1125 62 22.0264Q62.4 21.9402 62.7562 21.768Q63.1125 21.5957 63.4437 21.3435Q63.775 21.0912 64.1125 20.7467L64.1125 18.6Q62.7625 18.6 61.8563 18.7699Q60.95 18.9398 60.4 19.2043Q59.85 19.4688 59.6187 19.8212Q59.3875 20.1736 59.3875 20.5891Q59.3875 21.4074 59.8688 21.76Q60.35 22.1125 61.125 22.1125ZM123.075 22.0264Q122.675 22.1125 122.2 22.1125Q121.425 22.1125 120.944 21.76Q120.463 21.4074 120.463 20.5891Q120.463 20.1736 120.694 19.8212Q120.925 19.4688 121.475 19.2043Q122.025 18.9398 122.931 18.7699Q123.838 18.6 125.188 18.6L125.188 20.7467Q124.85 21.0912 124.519 21.3435Q124.188 21.5957 123.831 21.768Q123.475 21.9402 123.075 22.0264ZM174.075 23.9507Q174.3 24.1932 174.3 24.576Q174.3 24.9588 174.112 25.2843Q173.925 25.6098 173.519 25.8459Q173.112 26.082 172.487 26.216Q171.862 26.35 171 26.35Q170.15 26.35 169.562 26.2313Q168.975 26.1125 168.606 25.9Q168.237 25.6875 168.069 25.3938Q167.9 25.1 167.9 24.7625Q167.9 24.25 168.219 23.8563Q168.537 23.4625 169.062 23.175Q169.637 23.3125 170.256 23.3125L171.456 23.3125Q172.037 23.3125 172.556 23.3763Q173.075 23.44 173.462 23.5741Q173.85 23.7082 174.075 23.9507Z" />
      </g>
      <g id="Conference-2023" fill="#171716">
        <path d="M47.3875 43.5375L47.3875 54.0375L50.475 54.0375L50.475 43.525L53.7125 43.525L53.7125 41.325L50.375 41.325L50.375 40.475Q50.375 39.7625 50.5313 39.2813Q50.6875 38.8 50.9875 38.5062Q51.2875 38.2125 51.7188 38.0938Q52.15 37.975 52.7 37.975Q53.1125 37.975 53.425 37.8875Q53.7375 37.8 53.7625 37.4375L53.825 35.8875Q53.0625 35.65 52.175 35.65Q51.0625 35.65 50.175 35.975Q49.2875 36.3 48.6688 36.9125Q48.05 37.525 47.7188 38.4Q47.3875 39.275 47.3875 40.375L47.3875 41.325L45.475 41.325L45.475 42.5875Q45.475 42.925 45.6937 43.1125Q45.9125 43.3 46.275 43.3625L47.3875 43.5375ZM14.725 49.9875Q14.525 49.775 14.25 49.775Q14.0875 49.775 13.95 49.8438Q13.8125 49.9125 13.6875 50.025Q13.275 50.4 12.8563 50.6563Q12.4375 50.9125 11.9688 51.075Q11.5 51.2375 10.9438 51.3125Q10.3875 51.3875 9.7 51.3875Q8.55 51.3875 7.55 50.9562Q6.55 50.525 5.8125 49.7125Q5.075 48.9 4.64375 47.7125Q4.2125 46.525 4.2125 45Q4.2125 43.525 4.64375 42.3438Q5.075 41.1625 5.84375 40.3375Q6.6125 39.5125 7.68125 39.0687Q8.75 38.625 10.025 38.625Q11.1125 38.625 11.8188 38.85Q12.525 39.075 12.9875 39.3375Q13.45 39.6 13.75 39.825Q14.05 40.05 14.3375 40.05Q14.6125 40.05 14.7688 39.9375Q14.925 39.825 15.025 39.675L16.15 38.1125Q15.075 37.05 13.5688 36.4063Q12.0625 35.7625 10.05 35.7625Q7.9875 35.7625 6.28125 36.4437Q4.575 37.125 3.35 38.35Q2.125 39.575 1.45 41.2687Q0.775 42.9625 0.775 45Q0.775 47.0125 1.38125 48.7125Q1.9875 50.4125 3.125 51.6375Q4.2625 52.8625 5.86875 53.55Q7.475 54.2375 9.4875 54.2375Q11.7375 54.2375 13.3438 53.5125Q14.95 52.7875 16.05 51.425L14.725 49.9875ZM142.738 35.7625Q143.988 35.7625 145.025 36.1312Q146.063 36.5 146.8 37.175Q147.538 37.85 147.95 38.8Q148.363 39.75 148.363 40.9125Q148.363 41.9125 148.069 42.7625Q147.775 43.6125 147.281 44.3875Q146.788 45.1625 146.125 45.8875Q145.463 46.6125 144.738 47.3625L140.663 51.525Q141.263 51.35 141.838 51.2562Q142.413 51.1625 142.938 51.1625L147.575 51.1625Q148.075 51.1625 148.369 51.4437Q148.663 51.725 148.663 52.1875L148.663 54.0375L136.263 54.0375L136.263 53.0125Q136.263 52.7 136.394 52.3625Q136.525 52.025 136.813 51.7375L142.3 46.2375Q142.988 45.5375 143.531 44.9Q144.075 44.2625 144.444 43.6375Q144.813 43.0125 145.006 42.3687Q145.2 41.725 145.2 41.0125Q145.2 40.3625 145.013 39.8687Q144.825 39.375 144.475 39.0375Q144.125 38.7 143.644 38.5312Q143.163 38.3625 142.563 38.3625Q141.45 38.3625 140.731 38.925Q140.013 39.4875 139.725 40.4375Q139.588 40.9125 139.313 41.1187Q139.038 41.325 138.613 41.325Q138.425 41.325 138.2 41.2875L136.575 41Q136.763 39.7 137.3 38.7187Q137.838 37.7375 138.644 37.0812Q139.45 36.425 140.494 36.0938Q141.538 35.7625 142.738 35.7625ZM163.081 49.1062Q163.588 47.3625 163.588 45Q163.588 42.625 163.081 40.8875Q162.575 39.15 161.681 38.0125Q160.788 36.875 159.569 36.3187Q158.35 35.7625 156.938 35.7625Q155.525 35.7625 154.319 36.3187Q153.113 36.875 152.225 38.0125Q151.338 39.15 150.838 40.8875Q150.338 42.625 150.338 45Q150.338 47.3625 150.838 49.1062Q151.338 50.85 152.225 51.9875Q153.113 53.125 154.319 53.6812Q155.525 54.2375 156.938 54.2375Q158.35 54.2375 159.569 53.6812Q160.788 53.125 161.681 51.9875Q162.575 50.85 163.081 49.1062ZM171.738 35.7625Q172.988 35.7625 174.025 36.1312Q175.063 36.5 175.8 37.175Q176.538 37.85 176.95 38.8Q177.363 39.75 177.363 40.9125Q177.363 41.9125 177.069 42.7625Q176.775 43.6125 176.281 44.3875Q175.788 45.1625 175.125 45.8875Q174.463 46.6125 173.738 47.3625L169.663 51.525Q170.263 51.35 170.838 51.2562Q171.413 51.1625 171.938 51.1625L176.575 51.1625Q177.075 51.1625 177.369 51.4437Q177.663 51.725 177.663 52.1875L177.663 54.0375L165.263 54.0375L165.263 53.0125Q165.263 52.7 165.394 52.3625Q165.525 52.025 165.813 51.7375L171.3 46.2375Q171.988 45.5375 172.531 44.9Q173.075 44.2625 173.444 43.6375Q173.813 43.0125 174.006 42.3687Q174.2 41.725 174.2 41.0125Q174.2 40.3625 174.013 39.8687Q173.825 39.375 173.475 39.0375Q173.125 38.7 172.644 38.5312Q172.163 38.3625 171.563 38.3625Q170.45 38.3625 169.731 38.925Q169.013 39.4875 168.725 40.4375Q168.588 40.9125 168.313 41.1187Q168.038 41.325 167.613 41.325Q167.425 41.325 167.2 41.2875L165.575 41Q165.763 39.7 166.3 38.7187Q166.838 37.7375 167.644 37.0812Q168.45 36.425 169.494 36.0938Q170.538 35.7625 171.738 35.7625ZM188.781 36.1187Q187.775 35.7625 186.525 35.7625Q185.325 35.7625 184.281 36.0938Q183.238 36.4252 182.431 37.0816Q181.625 37.7381 181.088 38.7196Q180.55 39.7012 180.363 41.0016L181.988 41.2846Q182.213 41.3215 182.413 41.3215Q182.838 41.3215 183.1 41.1155Q183.363 40.9096 183.513 40.435Q183.8 39.5236 184.525 38.9431Q185.25 38.3625 186.35 38.3625Q187.563 38.3625 188.263 39.0187Q188.963 39.675 188.963 40.9625Q188.963 41.5625 188.788 42.0625Q188.613 42.5625 188.169 42.9187Q187.725 43.275 186.975 43.475Q186.225 43.675 185.088 43.675L185.088 45.8875Q186.463 45.8875 187.281 46.1Q188.1 46.3125 188.538 46.6875Q188.975 47.0625 189.113 47.5938Q189.25 48.125 189.25 48.775Q189.25 49.2875 189.056 49.7937Q188.863 50.3 188.469 50.7125Q188.075 51.125 187.488 51.3812Q186.9 51.6375 186.113 51.6375Q185.413 51.6375 184.906 51.4312Q184.4 51.225 184.025 50.8937Q183.65 50.5625 183.381 50.1375Q183.113 49.7125 182.888 49.275Q182.75 49.0125 182.494 48.875Q182.238 48.7375 181.913 48.7375Q181.55 48.7375 181.2 48.8875L179.838 49.45Q180.213 50.6125 180.738 51.5Q181.263 52.3875 182.013 53Q182.763 53.6125 183.775 53.925Q184.788 54.2375 186.15 54.2375Q187.4 54.2375 188.519 53.875Q189.638 53.5125 190.488 52.8062Q191.338 52.1 191.838 51.0625Q192.338 50.025 192.338 48.675Q192.338 47.0875 191.538 46.0375Q190.738 44.9875 189.113 44.475Q189.788 44.25 190.319 43.9125Q190.85 43.575 191.219 43.0875Q191.588 42.6 191.781 41.9437Q191.975 41.2875 191.975 40.425Q191.975 39.4375 191.594 38.5875Q191.213 37.7375 190.5 37.1062Q189.788 36.475 188.781 36.1187ZM160.113 41.75Q160.4 43.0375 160.4 45Q160.4 46.9625 160.113 48.25Q159.825 49.5375 159.344 50.3Q158.863 51.0625 158.238 51.3687Q157.613 51.675 156.938 51.675Q156.275 51.675 155.656 51.3687Q155.038 51.0625 154.563 50.3Q154.088 49.5375 153.806 48.25Q153.525 46.9625 153.525 45Q153.525 43.0375 153.806 41.75Q154.088 40.4625 154.563 39.7Q155.038 38.9375 155.656 38.6312Q156.275 38.325 156.938 38.325Q157.613 38.325 158.238 38.6312Q158.863 38.9375 159.344 39.7Q159.825 40.4625 160.113 41.75ZM70.775 41.2125L68.9625 41.2125L68.9625 54.0375L72.05 54.0375L72.05 46.05Q72.525 45.025 73.2125 44.4937Q73.9 43.9625 74.8625 43.9625Q75.4 43.9625 75.725 44.05Q76.05 44.1375 76.2375 44.1375Q76.45 44.1375 76.575 44.0437Q76.7 43.95 76.7375 43.725L77.1375 41.4125Q76.5125 40.975 75.5625 40.975Q74.4125 40.975 73.4875 41.6625Q72.5625 42.35 71.875 43.5375L71.6875 41.9875Q71.625 41.5625 71.4375 41.3875Q71.25 41.2125 70.775 41.2125ZM26.4938 41.475Q25.325 41.0125 23.8875 41.0125Q22.45 41.0125 21.275 41.475Q20.1 41.9375 19.2688 42.7875Q18.4375 43.6375 17.9813 44.8625Q17.525 46.0875 17.525 47.6Q17.525 49.125 17.9813 50.35Q18.4375 51.575 19.2688 52.4375Q20.1 53.3 21.275 53.7625Q22.45 54.225 23.8875 54.225Q25.325 54.225 26.4938 53.7625Q27.6625 53.3 28.4875 52.4375Q29.3125 51.575 29.7625 50.35Q30.2125 49.125 30.2125 47.6Q30.2125 46.0875 29.7625 44.8625Q29.3125 43.6375 28.4875 42.7875Q27.6625 41.9375 26.4938 41.475ZM32.625 41.2125L34.5125 41.2125Q35.1125 41.2125 35.3 41.775L35.5125 42.7875Q35.9 42.3875 36.3312 42.0625Q36.7625 41.7375 37.2438 41.5Q37.725 41.2625 38.275 41.1375Q38.825 41.0125 39.475 41.0125Q40.525 41.0125 41.3375 41.3687Q42.15 41.725 42.6938 42.3687Q43.2375 43.0125 43.5188 43.9063Q43.8 44.8 43.8 45.875L43.8 54.0375L40.7125 54.0375L40.7125 45.875Q40.7125 44.7 40.1688 44.0562Q39.625 43.4125 38.5375 43.4125Q37.7375 43.4125 37.0375 43.775Q36.3375 44.1375 35.7125 44.7625L35.7125 54.0375L32.625 54.0375L32.625 41.2125ZM60.9 41.0125Q62.1125 41.0125 63.1313 41.4Q64.15 41.7875 64.8875 42.5313Q65.625 43.275 66.0375 44.3562Q66.45 45.4375 66.45 46.825Q66.45 47.175 66.4188 47.4062Q66.3875 47.6375 66.3063 47.7687Q66.225 47.9 66.0875 47.9562Q65.95 48.0125 65.7375 48.0125L57.8125 48.0125Q57.95 49.9875 58.875 50.9125Q59.8 51.8375 61.325 51.8375Q62.075 51.8375 62.6188 51.6625Q63.1625 51.4875 63.5688 51.275Q63.975 51.0625 64.2813 50.8875Q64.5875 50.7125 64.875 50.7125Q65.0625 50.7125 65.2 50.7875Q65.3375 50.8625 65.4375 51L66.3375 52.125Q65.825 52.725 65.1875 53.1312Q64.55 53.5375 63.8563 53.7813Q63.1625 54.025 62.4438 54.125Q61.725 54.225 61.05 54.225Q59.7125 54.225 58.5625 53.7813Q57.4125 53.3375 56.5625 52.4688Q55.7125 51.6 55.225 50.3187Q54.7375 49.0375 54.7375 47.35Q54.7375 46.0375 55.1625 44.8812Q55.5875 43.725 56.3813 42.8687Q57.175 42.0125 58.3188 41.5125Q59.4625 41.0125 60.9 41.0125ZM84.475 41.0125Q85.6875 41.0125 86.7063 41.4Q87.725 41.7875 88.4625 42.5313Q89.2 43.275 89.6125 44.3562Q90.025 45.4375 90.025 46.825Q90.025 47.175 89.9938 47.4062Q89.9625 47.6375 89.8813 47.7687Q89.8 47.9 89.6625 47.9562Q89.525 48.0125 89.3125 48.0125L81.3875 48.0125Q81.525 49.9875 82.45 50.9125Q83.375 51.8375 84.9 51.8375Q85.65 51.8375 86.1938 51.6625Q86.7375 51.4875 87.1438 51.275Q87.55 51.0625 87.8563 50.8875Q88.1625 50.7125 88.45 50.7125Q88.6375 50.7125 88.775 50.7875Q88.9125 50.8625 89.0125 51L89.9125 52.125Q89.4 52.725 88.7625 53.1312Q88.125 53.5375 87.4313 53.7813Q86.7375 54.025 86.0188 54.125Q85.3 54.225 84.625 54.225Q83.2875 54.225 82.1375 53.7813Q80.9875 53.3375 80.1375 52.4688Q79.2875 51.6 78.8 50.3187Q78.3125 49.0375 78.3125 47.35Q78.3125 46.0375 78.7375 44.8812Q79.1625 43.725 79.9563 42.8687Q80.75 42.0125 81.8938 41.5125Q83.0375 41.0125 84.475 41.0125ZM94.425 41.2125L92.5375 41.2125L92.5375 54.0375L95.625 54.0375L95.625 44.7625Q96.25 44.1375 96.95 43.775Q97.65 43.4125 98.45 43.4125Q99.5375 43.4125 100.081 44.0562Q100.625 44.7 100.625 45.875L100.625 54.0375L103.713 54.0375L103.713 45.875Q103.713 44.8 103.431 43.9063Q103.15 43.0125 102.606 42.3687Q102.063 41.725 101.25 41.3687Q100.438 41.0125 99.3875 41.0125Q98.7375 41.0125 98.1875 41.1375Q97.6375 41.2625 97.1563 41.5Q96.675 41.7375 96.2438 42.0625Q95.8125 42.3875 95.425 42.7875L95.2125 41.775Q95.025 41.2125 94.425 41.2125ZM115.763 43.925Q115.625 44.1 115.494 44.2Q115.363 44.3 115.113 44.3Q114.875 44.3 114.65 44.1563Q114.425 44.0125 114.113 43.8312Q113.8 43.65 113.369 43.5062Q112.938 43.3625 112.3 43.3625Q111.488 43.3625 110.875 43.6563Q110.263 43.95 109.856 44.5Q109.45 45.05 109.25 45.8312Q109.05 46.6125 109.05 47.6Q109.05 48.625 109.269 49.425Q109.488 50.225 109.9 50.7687Q110.313 51.3125 110.9 51.5938Q111.488 51.875 112.225 51.875Q112.963 51.875 113.419 51.6937Q113.875 51.5125 114.188 51.2937Q114.5 51.075 114.731 50.8937Q114.963 50.7125 115.25 50.7125Q115.625 50.7125 115.813 51L116.7 52.125Q116.188 52.725 115.588 53.1312Q114.988 53.5375 114.344 53.7813Q113.7 54.025 113.013 54.125Q112.325 54.225 111.65 54.225Q110.463 54.225 109.413 53.7813Q108.363 53.3375 107.581 52.4875Q106.8 51.6375 106.344 50.4063Q105.888 49.175 105.888 47.6Q105.888 46.1875 106.294 44.9812Q106.7 43.775 107.488 42.8937Q108.275 42.0125 109.438 41.5125Q110.6 41.0125 112.113 41.0125Q113.55 41.0125 114.631 41.475Q115.713 41.9375 116.575 42.8L115.763 43.925ZM126.206 41.4Q125.188 41.0125 123.975 41.0125Q122.538 41.0125 121.394 41.5125Q120.25 42.0125 119.456 42.8687Q118.663 43.725 118.238 44.8812Q117.813 46.0375 117.813 47.35Q117.813 49.0375 118.3 50.3187Q118.788 51.6 119.638 52.4688Q120.488 53.3375 121.638 53.7813Q122.788 54.225 124.125 54.225Q124.8 54.225 125.519 54.125Q126.238 54.025 126.931 53.7813Q127.625 53.5375 128.263 53.1312Q128.9 52.725 129.413 52.125L128.513 51Q128.413 50.8625 128.275 50.7875Q128.138 50.7125 127.95 50.7125Q127.663 50.7125 127.356 50.8875Q127.05 51.0625 126.644 51.275Q126.238 51.4875 125.694 51.6625Q125.15 51.8375 124.4 51.8375Q122.875 51.8375 121.95 50.9125Q121.025 49.9875 120.888 48.0125L128.813 48.0125Q129.025 48.0125 129.163 47.9562Q129.3 47.9 129.381 47.7687Q129.463 47.6375 129.494 47.4062Q129.525 47.175 129.525 46.825Q129.525 45.4375 129.113 44.3562Q128.7 43.275 127.963 42.5313Q127.225 41.7875 126.206 41.4ZM60.9625 43.225Q59.6125 43.225 58.85 43.9875Q58.0875 44.75 57.875 46.15L63.675 46.15Q63.675 45.55 63.5125 45.0187Q63.35 44.4875 63.0125 44.0875Q62.675 43.6875 62.1625 43.4562Q61.65 43.225 60.9625 43.225ZM84.5375 43.225Q83.1875 43.225 82.425 43.9875Q81.6625 44.75 81.45 46.15L87.25 46.15Q87.25 45.55 87.0875 45.0187Q86.925 44.4875 86.5875 44.0875Q86.25 43.6875 85.7375 43.4562Q85.225 43.225 84.5375 43.225ZM121.925 43.9875Q122.688 43.225 124.038 43.225Q124.725 43.225 125.238 43.4562Q125.75 43.6875 126.088 44.0875Q126.425 44.4875 126.588 45.0187Q126.75 45.55 126.75 46.15L120.95 46.15Q121.163 44.75 121.925 43.9875ZM26.2563 50.775Q25.4875 51.85 23.8875 51.85Q22.2625 51.85 21.4875 50.7687Q20.7125 49.6875 20.7125 47.625Q20.7125 45.5625 21.4875 44.4688Q22.2625 43.375 23.8875 43.375Q25.4875 43.375 26.2563 44.4625Q27.025 45.55 27.025 47.625Q27.025 49.7 26.2563 50.775Z" />
      </g>
    </g>
    <g id="Polygon-2">
      <use stroke="none" fill="#D3D3D3" fill-opacity="0" xlink:href="#path_2" fill-rule="evenodd" />
      <g clip-path="url(#clip_2)">
        <use xlink:href="#path_2" fill="none" stroke="#FF8705" stroke-width="4" />
      </g>
    </g>
  </g>
</svg>