<?xml version="1.0" encoding="utf-8"?>
<svg width="127px" height="20px" viewBox="0 0 127 20" version="1.1" xmlns:xlink="http://www.w3.org/1999/xlink" xmlns="http://www.w3.org/2000/svg">
  <defs>
    <path d="M0 5.81287e-05L127 5.81287e-05L127 20L0 20L0 5.81287e-05Z" id="path_1" />
    <clipPath id="mask_1">
      <use xlink:href="#path_1" />
    </clipPath>
  </defs>
  <g id="Daum_Kakao_wordmark_-_2014">
    <path d="M0 5.81287e-05L127 5.81287e-05L127 20L0 20L0 5.81287e-05Z" id="Background" fill="#FFFFFF" fill-opacity="0" fill-rule="evenodd" stroke="none" />
    <path d="M4.66118 9.17362C3.31693 10.4321 2.97926 15.185 4.5803 16.6116C5.54302 17.4698 7.2651 16.9855 8.30223 16.1159C8.30223 13.6643 8.30223 11.2121 8.30223 8.76026C6.8168 8.47927 5.52711 8.36278 4.66118 9.17362L4.66118 9.17362ZM11.7007 0C11.8895 6.33607 11.7277 13.0301 11.7817 19.5043C10.9994 19.5043 10.2173 19.5043 9.43521 19.5043C9.08728 19.3362 9.16286 18.7356 8.94965 18.4302C7.79017 19.1001 7.06426 19.8022 5.63205 19.9172C-0.323474 20.3961 -1.49506 11.0295 1.82913 7.43799C3.16034 5.99981 6.27169 5.09737 8.30223 6.36365C8.30223 4.46287 8.30223 2.56194 8.30223 0.661121C9.3778 0.382162 10.6252 0.278996 11.7007 1.9704e-06M66.3185 12.1489C68.0039 10.2336 69.723 7.63707 71.3353 5.37189C72.2773 5.92474 73.0898 6.61007 74.0055 7.18996C72.7617 9.00535 71.3599 10.6584 70.041 12.3967C71.4627 14.3053 73.1191 15.9739 74.491 17.9339C73.5989 18.593 72.7037 19.2494 71.9017 20C70.0238 17.7859 68.2841 15.4305 66.3994 13.2231C66.2106 15.152 66.3725 17.4382 66.3185 19.5043C65.1587 19.5043 63.9993 19.5043 62.8392 19.5043C62.8392 13.2231 62.8392 6.9422 62.8392 0.661119C63.9268 0.39466 65.1692 0.286121 66.2373 0C66.4264 3.88446 66.2642 8.1267 66.3185 12.1489M92.2924 12.1489C93.965 10.2207 95.6909 7.63076 97.3092 5.37189C98.2528 5.92312 99.0478 6.6265 99.9794 7.18996C98.7184 8.98771 97.3321 10.6568 96.0145 12.3967C97.4312 14.3106 99.0873 15.9799 100.465 17.9339C99.5566 18.5762 98.683 19.2548 97.8756 20C95.9609 17.7684 94.2135 15.3659 92.2924 13.1404C92.2924 15.2616 92.2924 17.383 92.2924 19.5043C91.1326 19.5043 89.9728 19.5043 88.813 19.5043C88.813 13.2231 88.813 6.9422 88.813 0.661119C89.8933 0.387015 91.1424 0.285434 92.2115 0C92.4003 3.88446 92.2385 8.1267 92.2924 12.1489M17.1221 16.5289C17.8359 17.8081 20.6163 16.8531 21.3297 16.1159C21.3297 15.2892 21.3297 14.4626 21.3297 13.6367C18.8646 13.0994 15.9491 14.4277 17.1221 16.5289L17.1221 16.5289ZM24.5663 19.5043C23.7572 19.5043 22.9479 19.5043 22.1387 19.5043C22.0211 19.1566 21.8644 18.8479 21.8152 18.4302C20.1806 19.7377 16.5852 20.7741 14.7756 18.7604C13.5669 17.4153 13.3646 14.312 14.7756 12.8101C16.2288 11.2627 18.3115 11.4177 21.2488 11.4049C22.0235 7.8562 17.2189 8.64294 15.4228 9.5867C15.1586 8.80988 14.8366 8.09173 14.5328 7.35527C15.8526 6.27783 17.8022 5.54942 20.2777 5.78496C26.0493 6.3343 24.3227 12.9857 24.5663 19.5043M51.7538 7.43803C53.1651 5.91414 56.8623 5.0222 58.6319 6.61159C61.1798 8.9006 59.5031 15.0626 60.0072 19.5043C58.8204 19.5043 57.6337 19.5043 56.4469 19.5043C56.2662 17.227 56.6829 13.0799 56.4469 10.6612C56.4 10.1799 56.2197 9.41861 55.9614 9.17367C55.2527 8.50205 53.4672 8.88121 52.4824 9.17367C52.4824 12.6172 52.4824 16.0608 52.4824 19.5043C51.2953 19.5043 50.1085 19.5043 48.9218 19.5043C48.7124 17.1672 49.1955 12.9265 48.9218 10.4959C48.705 8.57374 46.8567 8.57078 44.9569 9.17367C44.9569 12.6172 44.9569 16.0608 44.9569 19.5043C43.7705 19.5043 42.5834 19.5043 41.3966 19.5043C41.3966 15.0418 41.3966 10.5786 41.3966 6.11579C42.2058 6.11579 43.0149 6.11579 43.8241 6.11579C43.9964 6.54623 44.2162 6.92757 44.3096 7.43803C45.6788 5.69072 50.6298 4.87317 51.7538 7.43803M78.9412 16.5289C79.6509 17.8001 82.4472 16.8665 83.1488 16.116C83.1488 15.2892 83.1488 14.4627 83.1488 13.6368C80.6859 13.1007 77.7699 14.431 78.9412 16.5289L78.9412 16.5289ZM86.3854 19.5043C85.5766 19.5043 84.7671 19.5043 83.958 19.5043C83.84 19.1566 83.6832 18.8479 83.6343 18.4302C82.431 19.0678 81.5083 19.8392 79.9122 19.9173C76.9001 20.0659 75.5735 18.0368 75.6237 15.6201C75.7026 11.8413 78.9908 11.1294 83.1488 11.4049C83.7068 7.70945 79.0528 8.73727 77.242 9.58672C76.9989 8.73321 76.5781 8.06066 76.3516 7.18997C77.9567 6.35426 79.4702 5.57165 82.016 5.78498C84.4832 5.992 86.1663 7.59661 86.3854 10.1652C86.609 12.7833 86.2219 16.1738 86.3854 19.5043M104.915 16.5289C105.629 17.8081 108.409 16.8531 109.123 16.116C109.123 15.2893 109.123 14.4627 109.123 13.6368C106.657 13.0994 103.742 14.4277 104.915 16.5289L104.915 16.5289ZM112.359 19.5043C111.577 19.5043 110.795 19.5043 110.013 19.5043C109.723 19.3046 109.721 18.8109 109.608 18.4303C107.974 19.7384 104.377 20.7735 102.569 18.7605C101.362 17.4187 101.157 14.3134 102.569 12.8102C104.038 11.2462 106.155 11.4203 109.123 11.4049C109.65 7.7419 105.038 8.717 103.216 9.58676C102.952 8.80994 102.63 8.09179 102.326 7.35533C103.655 6.27627 105.519 5.57789 107.99 5.78502C113.829 6.27465 112.134 12.9319 112.359 19.5043M119.399 16.7266C124.393 18.903 124.813 7.59466 120.127 8.37899C117.273 8.85692 117.046 15.7001 119.399 16.7266L119.399 16.7266ZM119.561 5.65177C123.097 5.21785 125.169 6.94443 126.034 8.62704C128.198 12.8377 126.406 17.5666 123.768 18.9581C120.869 20.4869 116.865 19.5238 115.353 17.0568C112.504 12.4094 115.029 6.20797 119.561 5.65177M30.5538 6.11577C30.6989 7.43116 30.6347 9.25085 30.6347 11.0744C30.6347 12.8122 30.3496 14.8232 30.7967 15.8676C31.3933 17.2627 33.7585 17.0105 34.9233 16.1987C34.9769 12.8647 34.8161 9.31177 35.0046 6.11577C36.164 6.11577 37.3238 6.11577 38.4836 6.11577C38.4836 10.5786 38.4836 15.0417 38.4836 19.5043C37.7018 19.5043 36.9192 19.5043 36.1371 19.5043C35.753 19.318 35.8282 18.6629 35.6519 18.2648C34.0987 19.9805 30.2772 20.5448 28.4502 18.9259C25.9048 16.6701 27.56 10.7563 27.0746 6.36367C27.0677 6.24639 27.0613 6.12962 27.1554 6.11577C28.2886 6.11577 29.4212 6.11577 30.5538 6.11577" id="g10" fill="#8B8B8D" stroke="none" />
  </g>
</svg>