<?xml version="1.0" encoding="utf-8"?>
<svg width="110px" height="55px" viewBox="0 0 110 55" version="1.1" xmlns:xlink="http://www.w3.org/1999/xlink" xmlns="http://www.w3.org/2000/svg">
  <defs>
    <path d="M0 0L110 0L110 55L0 55L0 0Z" id="path_1" />
    <clipPath id="mask_1">
      <use xlink:href="#path_1" />
    </clipPath>
  </defs>
  <g id="google-ar21">
    <path d="M0 0L110 0L110 55L0 55L0 0Z" id="Background" fill="#FFFFFF" fill-opacity="0" fill-rule="evenodd" stroke="none" />
    <g clip-path="url(#mask_1)">
      <path d="M29.679 24.2421L18.2023 24.2421L18.2023 27.6475L26.3423 27.6475C25.939 32.4142 21.967 34.4602 18.216 34.4602C15.8156 34.4708 13.5116 33.5163 11.822 31.8112C10.1323 30.1062 9.19863 27.7937 9.23087 25.3935C9.23087 20.2381 13.222 16.269 18.227 16.269C22.088 16.269 24.3632 18.7302 24.3632 18.7302L26.7465 16.2607C26.7465 16.2607 23.6849 12.8535 18.1024 12.8535C10.9936 12.8535 5.49453 18.853 5.49453 25.333C5.49453 31.6827 10.6673 37.8748 18.282 37.8748C24.9801 37.8748 29.8834 33.286 29.8834 26.5008C29.8834 25.069 29.6753 24.2421 29.6753 24.2421L29.679 24.2421Z" id="Shape" fill="#5E5E5D" fill-rule="evenodd" stroke="none" />
      <path d="M39.0812 21.7754C34.3713 21.7754 30.9962 25.4577 30.9962 29.7504C30.9962 34.1082 34.2687 37.8583 39.1362 37.8583C43.5417 37.8583 47.1506 34.4914 47.1506 29.8439C47.1506 24.5272 42.9522 21.7745 39.0812 21.7745L39.0812 21.7754ZM39.1271 24.9342C41.4426 24.9342 43.6371 26.807 43.6371 29.8237C43.6371 32.7754 41.4517 34.7022 39.1161 34.7022C36.5494 34.7022 34.5327 32.6471 34.5327 29.7999C34.5327 27.0132 36.5311 24.9342 39.1344 24.9342L39.1271 24.9342Z" id="A" fill="#797979" fill-rule="evenodd" stroke="none" />
      <path d="M56.6637 21.7754C51.9539 21.7754 48.5787 25.4577 48.5787 29.7504C48.5787 34.1082 51.8512 37.8583 56.7187 37.8583C61.1242 37.8583 64.7331 34.4914 64.7331 29.8439C64.7331 24.5272 60.5348 21.7745 56.6637 21.7745L56.6637 21.7754ZM56.7096 24.9342C59.0251 24.9342 61.2196 26.807 61.2196 29.8237C61.2196 32.7754 59.0343 34.7022 56.6986 34.7022C54.1319 34.7022 52.1153 32.6471 52.1153 29.7999C52.1153 27.0132 54.1136 24.9342 56.7169 24.9342L56.7096 24.9342Z" id="A" fill="#7E7D80" fill-rule="evenodd" stroke="none" />
      <path d="M73.909 21.7846C69.586 21.7846 66.1888 25.5704 66.1888 29.8201C66.1888 34.6601 70.1277 37.8703 73.8338 37.8703C76.1255 37.8703 77.3447 36.96 78.2338 35.9159L78.2338 37.5018C78.2338 40.2765 76.549 41.9384 74.0062 41.9384C71.5495 41.9384 70.3175 40.1115 69.8812 39.0757L66.7902 40.359C67.8865 42.6782 70.0938 45.0954 74.0318 45.0954C78.3402 45.0954 81.6053 42.3885 81.6053 36.7107L81.6053 22.2677L78.2467 22.2677L78.2467 23.6299C77.2108 22.5115 75.7918 21.7846 73.9108 21.7846L73.909 21.7846ZM74.2207 24.938C76.3401 24.938 78.5162 26.7475 78.5162 29.8376C78.5162 32.979 76.3437 34.7097 74.174 34.7097C71.8695 34.7097 69.7254 32.8397 69.7254 29.8669C69.7254 26.7796 71.9529 24.9371 74.2207 24.9371L74.2207 24.938Z" id="Shape" fill="#5E5E5D" fill-rule="evenodd" stroke="none" />
      <path d="M96.6167 21.7654C92.5394 21.7654 89.1156 25.0104 89.1156 29.7954C89.1156 34.8609 92.9317 37.8648 96.999 37.8648C100.402 37.8648 102.499 36.0039 103.736 34.3356L100.956 32.4858C100.235 33.6041 99.0285 34.6995 97.0164 34.6995C94.7559 34.6995 93.7164 33.462 93.072 32.2612L103.855 27.7879L103.305 26.477C102.263 23.9104 99.8333 21.7654 96.6176 21.7654L96.6167 21.7654ZM96.757 24.8582C98.2264 24.8582 99.2833 25.6392 99.7325 26.576L92.5312 29.5855C92.2195 27.2553 94.4287 24.8582 96.7478 24.8582L96.757 24.8582Z" id="Shape" fill="#797979" fill-rule="evenodd" stroke="none" />
      <path d="M83.9667 37.3881L87.5087 37.3881L87.5087 13.6858L83.9667 13.6858L83.9667 37.3881Z" id="Shape" fill="#9C9C9E" fill-rule="evenodd" stroke="none" />
    </g>
  </g>
</svg>