<?xml version="1.0" encoding="utf-8"?>
<svg width="284.4038px" height="59px" viewBox="0 0 284.4038 59" version="1.1" xmlns:xlink="http://www.w3.org/1999/xlink" xmlns="http://www.w3.org/2000/svg">
  <defs>
    <path d="M35.2019 59L6.86646e-05 14.3587L13.4459 0.937424L56.9576 0.937428L70.4036 14.3586L35.2019 59Z" id="path_1" />
    <path d="M34.6827 42.9L11.0001 12.8668L20.046 3.83739L49.3192 3.83739L58.3652 12.8667L34.6827 42.9Z" id="path_2" />
    <clipPath id="clip_1">
      <use xlink:href="#path_1" />
    </clipPath>
    <clipPath id="clip_2">
      <use xlink:href="#path_2" />
    </clipPath>
  </defs>
  <g id="Group">
    <g id="Polygon">
      <use stroke="none" fill="#D3D3D3" fill-opacity="0" xlink:href="#path_1" fill-rule="evenodd" />
      <g clip-path="url(#clip_1)">
        <use xlink:href="#path_1" fill="none" stroke="#CD5401" stroke-width="6" />
      </g>
    </g>
    <g id="Africa's-Leading-Tech-Conferen" transform="translate(80.40383 0)">
      <g id="Africa's-Leading" fill="#171716">
        <path d="M49 6.705Q49 7.223 48.79 7.678Q48.58 8.133 48.216 8.476Q47.852 8.819 47.369 9.022Q46.886 9.225 46.34 9.225Q45.808 9.225 45.346 9.022Q44.884 8.819 44.527 8.476Q44.17 8.133 43.967 7.678Q43.764 7.223 43.764 6.705Q43.764 6.173 43.967 5.711Q44.17 5.249 44.527 4.899Q44.884 4.549 45.346 4.353Q45.808 4.157 46.34 4.157Q46.886 4.157 47.369 4.353Q47.852 4.549 48.216 4.899Q48.58 5.249 48.79 5.711Q49 6.173 49 6.705ZM171.15 7.678Q171.36 7.223 171.36 6.705Q171.36 6.173 171.15 5.711Q170.94 5.249 170.576 4.899Q170.212 4.549 169.729 4.353Q169.246 4.157 168.7 4.157Q168.168 4.157 167.706 4.353Q167.244 4.549 166.887 4.899Q166.53 5.249 166.327 5.711Q166.124 6.173 166.124 6.705Q166.124 7.223 166.327 7.678Q166.53 8.133 166.887 8.476Q167.244 8.819 167.706 9.022Q168.168 9.225 168.7 9.225Q169.246 9.225 169.729 9.022Q170.212 8.819 170.576 8.476Q170.94 8.133 171.15 7.678ZM160.328 25.199Q159.922 25.199 159.649 25.017Q159.376 24.835 159.264 24.471L158.928 23.365Q158.494 23.827 158.018 24.205Q157.542 24.583 156.989 24.856Q156.436 25.129 155.799 25.276Q155.162 25.423 154.42 25.423Q153.286 25.423 152.32 24.919Q151.354 24.415 150.654 23.463Q149.954 22.511 149.555 21.132Q149.156 19.753 149.156 17.989Q149.156 16.365 149.604 14.972Q150.052 13.579 150.871 12.564Q151.69 11.549 152.838 10.975Q153.986 10.401 155.372 10.401Q156.492 10.401 157.269 10.73Q158.046 11.059 158.676 11.591L158.676 4.241L163.016 4.241L163.016 25.199L160.328 25.199ZM22.96 25.199L22.96 13.663L22.008 13.467Q21.518 13.355 21.217 13.117Q20.916 12.879 20.916 12.417L20.916 10.709L22.96 10.709L22.96 9.883Q22.96 8.637 23.359 7.629Q23.758 6.621 24.507 5.907Q25.256 5.193 26.334 4.801Q27.412 4.409 28.784 4.409Q29.316 4.409 29.771 4.472Q30.226 4.535 30.716 4.675L30.632 6.789Q30.618 7.013 30.513 7.16Q30.408 7.307 30.254 7.398Q30.1 7.489 29.911 7.531Q29.722 7.573 29.54 7.573Q28.966 7.573 28.518 7.685Q28.07 7.797 27.769 8.084Q27.468 8.371 27.314 8.84Q27.16 9.309 27.16 10.023L27.16 10.709L30.576 10.709L30.576 13.677L27.3 13.677L27.3 25.199L22.96 25.199ZM20.664 25.199L16.996 25.199Q16.38 25.199 15.981 24.912Q15.582 24.625 15.428 24.177L14.224 20.621L6.468 20.621L5.264 24.177Q5.124 24.569 4.718 24.884Q4.312 25.199 3.724 25.199L0.028 25.199L7.924 4.801L12.768 4.801L20.664 25.199ZM84.336 8.805L84.336 4.801L80.556 4.801L80.556 8.805L80.948 11.017Q81.088 11.773 81.445 12.172Q81.802 12.571 82.432 12.571Q83.174 12.571 83.496 12.172Q83.818 11.773 83.944 11.017L84.336 8.805ZM117.572 21.419L110.012 21.419L110.012 4.801L105.28 4.801L105.28 25.199L117.572 25.199L117.572 21.419ZM13.132 17.401L11.256 11.815Q11.074 11.283 10.829 10.562Q10.584 9.841 10.346 9.001Q10.122 9.855 9.884 10.583Q9.646 11.311 9.436 11.843L7.56 17.401L13.132 17.401ZM32.452 10.681L32.452 25.199L36.792 25.199L36.792 16.295Q37.772 14.475 39.48 14.475Q39.97 14.475 40.292 14.538Q40.614 14.601 40.852 14.601Q41.132 14.601 41.3 14.482Q41.468 14.363 41.524 14.069L42.084 10.877Q41.482 10.401 40.488 10.401Q39.312 10.401 38.318 11.115Q37.324 11.829 36.526 13.061L36.288 11.703Q36.232 11.423 36.155 11.227Q36.078 11.031 35.931 10.912Q35.784 10.793 35.567 10.737Q35.35 10.681 35.028 10.681L32.452 10.681ZM75.628 25.199Q75.012 25.199 74.697 25.031Q74.382 24.863 74.172 24.331L73.864 23.533Q73.318 23.995 72.814 24.345Q72.31 24.695 71.771 24.94Q71.232 25.185 70.623 25.304Q70.014 25.423 69.272 25.423Q68.278 25.423 67.466 25.1631Q66.654 24.9033 66.087 24.3976Q65.52 23.892 65.212 23.1406Q64.904 22.3892 64.904 21.4061Q64.904 20.6335 65.296 19.8188Q65.688 19.0042 66.654 18.337Q67.62 17.6698 69.258 17.2204Q70.896 16.771 73.388 16.771L73.388 16.1493Q73.388 14.8635 72.863 14.2913Q72.338 13.719 71.372 13.719Q70.602 13.719 70.112 13.887Q69.622 14.055 69.237 14.265Q68.852 14.475 68.488 14.643Q68.124 14.811 67.62 14.811Q67.172 14.811 66.857 14.594Q66.542 14.377 66.36 14.055L65.576 12.697Q66.892 11.535 68.495 10.968Q70.098 10.401 71.932 10.401Q73.248 10.401 74.305 10.828Q75.362 11.255 76.097 12.018Q76.832 12.781 77.224 13.831Q77.616 14.881 77.616 16.127L77.616 25.199L75.628 25.199ZM144.137 25.031Q144.452 25.199 145.068 25.199L147.056 25.199L147.056 16.127Q147.056 14.881 146.664 13.831Q146.272 12.781 145.537 12.018Q144.802 11.255 143.745 10.828Q142.688 10.401 141.372 10.401Q139.538 10.401 137.935 10.968Q136.332 11.535 135.016 12.697L135.8 14.055Q135.982 14.377 136.297 14.594Q136.612 14.811 137.06 14.811Q137.564 14.811 137.928 14.643Q138.292 14.475 138.677 14.265Q139.062 14.055 139.552 13.887Q140.042 13.719 140.812 13.719Q141.778 13.719 142.303 14.2913Q142.828 14.8635 142.828 16.1493L142.828 16.771Q140.336 16.771 138.698 17.2204Q137.06 17.6698 136.094 18.337Q135.128 19.0042 134.736 19.8188Q134.344 20.6335 134.344 21.4061Q134.344 22.3892 134.652 23.1406Q134.96 23.892 135.527 24.3976Q136.094 24.9033 136.906 25.1631Q137.718 25.423 138.712 25.423Q139.454 25.423 140.063 25.304Q140.672 25.185 141.211 24.94Q141.75 24.695 142.254 24.345Q142.758 23.995 143.304 23.533L143.612 24.331Q143.822 24.863 144.137 25.031ZM197.463 10.611Q196.644 10.429 195.72 10.429Q194.446 10.429 193.354 10.758Q192.262 11.087 191.457 11.696Q190.652 12.305 190.19 13.18Q189.728 14.055 189.728 15.147Q189.728 16.463 190.379 17.457Q191.03 18.451 192.164 19.053Q191.66 19.2906 191.296 19.5981Q190.932 19.9057 190.694 20.2413Q190.456 20.5768 190.344 20.9333Q190.232 21.2897 190.232 21.6111Q190.232 22.38 190.526 22.8832Q190.82 23.3864 191.31 23.708Q190.288 24.0864 189.7 24.7521Q189.112 25.4178 189.112 26.3848Q189.112 27.1277 189.504 27.8145Q189.896 28.5013 190.715 29.0268Q191.534 29.5523 192.773 29.8747Q194.012 30.197 195.72 30.197Q197.456 30.197 198.8 29.7546Q200.144 29.3122 201.068 28.5819Q201.992 27.8516 202.468 26.9107Q202.944 25.9699 202.944 24.9868Q202.944 23.9335 202.559 23.2523Q202.174 22.5712 201.544 22.1638Q200.914 21.7565 200.102 21.574Q199.29 21.3914 198.45 21.3142Q197.61 21.237 196.798 21.237Q195.986 21.237 195.356 21.1733Q194.726 21.1097 194.341 20.9472Q193.956 20.7846 193.956 20.4171Q193.956 20.0496 194.432 19.767Q195.034 19.851 195.72 19.851Q196.952 19.851 198.03 19.522Q199.108 19.193 199.899 18.584Q200.69 17.975 201.145 17.107Q201.6 16.239 201.6 15.147Q201.6 14.475 201.404 13.845L202.468 13.607Q202.958 13.495 203.161 13.285Q203.364 13.075 203.364 12.711L203.364 11.129L198.982 11.129Q198.282 10.793 197.463 10.611ZM62.09 14.503Q62.272 14.363 62.468 14.125L63.616 12.599Q62.58 11.549 61.292 11.003Q60.004 10.457 58.296 10.457Q56.518 10.457 55.167 11.031Q53.816 11.605 52.899 12.606Q51.982 13.607 51.513 14.972Q51.044 16.337 51.044 17.905Q51.044 19.697 51.583 21.097Q52.122 22.497 53.039 23.456Q53.956 24.415 55.167 24.919Q56.378 25.423 57.708 25.423Q58.45 25.423 59.234 25.318Q60.018 25.213 60.795 24.94Q61.572 24.667 62.314 24.184Q63.056 23.701 63.728 22.931L62.468 21.377Q62.202 20.999 61.684 20.999Q61.292 20.999 61.033 21.195Q60.774 21.391 60.466 21.622Q60.158 21.853 59.717 22.042Q59.276 22.231 58.52 22.231Q57.106 22.231 56.301 21.111Q55.496 19.991 55.496 17.905Q55.496 16.911 55.678 16.12Q55.86 15.329 56.238 14.783Q56.616 14.237 57.197 13.943Q57.778 13.649 58.576 13.649Q59.22 13.649 59.654 13.803Q60.088 13.957 60.41 14.146Q60.732 14.335 60.991 14.489Q61.25 14.643 61.572 14.643Q61.908 14.643 62.09 14.503ZM96.432 13.859Q96.264 14.125 96.075 14.237Q95.886 14.349 95.592 14.349Q95.284 14.349 94.976 14.216Q94.668 14.083 94.311 13.929Q93.954 13.775 93.506 13.642Q93.058 13.509 92.484 13.509Q91.658 13.509 91.217 13.824Q90.776 14.139 90.776 14.699Q90.776 15.105 91.063 15.371Q91.35 15.637 91.826 15.84Q92.302 16.043 92.904 16.225Q93.506 16.407 94.136 16.631Q94.766 16.855 95.368 17.156Q95.97 17.457 96.446 17.898Q96.922 18.339 97.209 18.969Q97.496 19.599 97.496 20.481Q97.496 21.559 97.104 22.469Q96.712 23.379 95.935 24.037Q95.158 24.695 94.017 25.059Q92.876 25.423 91.392 25.423Q90.65 25.423 89.908 25.283Q89.166 25.143 88.473 24.905Q87.78 24.667 87.192 24.338Q86.604 24.009 86.184 23.631L87.192 22.035Q87.374 21.755 87.626 21.594Q87.878 21.433 88.284 21.433Q88.662 21.433 88.963 21.601Q89.264 21.769 89.614 21.965Q89.964 22.161 90.433 22.329Q90.902 22.497 91.616 22.497Q92.12 22.497 92.47 22.392Q92.82 22.287 93.03 22.105Q93.24 21.923 93.338 21.699Q93.436 21.475 93.436 21.237Q93.436 20.803 93.142 20.523Q92.848 20.243 92.372 20.04Q91.896 19.837 91.287 19.662Q90.678 19.487 90.048 19.263Q89.418 19.039 88.809 18.724Q88.2 18.409 87.724 17.926Q87.248 17.443 86.954 16.743Q86.66 16.043 86.66 15.049Q86.66 14.125 87.017 13.292Q87.374 12.459 88.088 11.829Q88.802 11.199 89.88 10.828Q90.958 10.457 92.4 10.457Q93.184 10.457 93.919 10.597Q94.654 10.737 95.298 10.989Q95.942 11.241 96.474 11.584Q97.006 11.927 97.412 12.333L96.432 13.859ZM126.028 10.457Q127.47 10.457 128.667 10.905Q129.864 11.353 130.725 12.207Q131.586 13.061 132.069 14.3Q132.552 15.539 132.552 17.107Q132.552 17.597 132.51 17.905Q132.468 18.213 132.356 18.395Q132.244 18.577 132.055 18.647Q131.866 18.717 131.572 18.717L123.2 18.717Q123.41 20.537 124.306 21.356Q125.202 22.175 126.616 22.175Q127.372 22.175 127.918 21.993Q128.464 21.811 128.891 21.587Q129.318 21.363 129.675 21.181Q130.032 20.999 130.424 20.999Q130.942 20.999 131.208 21.377L132.468 22.931Q131.796 23.701 131.019 24.184Q130.242 24.667 129.423 24.94Q128.604 25.213 127.785 25.318Q126.966 25.423 126.224 25.423Q124.698 25.423 123.361 24.926Q122.024 24.429 121.023 23.449Q120.022 22.469 119.441 21.013Q118.86 19.557 118.86 17.625Q118.86 16.169 119.357 14.867Q119.854 13.565 120.785 12.585Q121.716 11.605 123.039 11.031Q124.362 10.457 126.028 10.457ZM174.356 25.199L174.356 10.681L177.044 10.681Q177.45 10.681 177.723 10.863Q177.996 11.045 178.108 11.409L178.36 12.249Q178.78 11.857 179.228 11.521Q179.676 11.185 180.187 10.954Q180.698 10.723 181.293 10.59Q181.888 10.457 182.588 10.457Q183.778 10.457 184.695 10.87Q185.612 11.283 186.242 12.018Q186.872 12.753 187.194 13.768Q187.516 14.783 187.516 15.973L187.516 25.199L183.176 25.199L183.176 15.973Q183.176 14.909 182.686 14.314Q182.196 13.719 181.244 13.719Q180.53 13.719 179.9 14.027Q179.27 14.335 178.696 14.853L178.696 25.199L174.356 25.199ZM48.496 10.681L48.496 25.199L44.156 25.199L44.156 10.681L48.496 10.681ZM170.856 25.199L170.856 10.681L166.516 10.681L166.516 25.199L170.856 25.199ZM197.281 16.638Q196.798 17.177 195.72 17.177Q195.188 17.177 194.803 17.03Q194.418 16.883 194.166 16.624Q193.914 16.365 193.795 16.015Q193.676 15.665 193.676 15.245Q193.676 14.363 194.159 13.859Q194.642 13.355 195.72 13.355Q196.798 13.355 197.281 13.859Q197.764 14.363 197.764 15.245Q197.764 16.099 197.281 16.638ZM126.112 13.453Q124.866 13.453 124.166 14.16Q123.466 14.867 123.242 16.197L128.66 16.197Q128.66 15.679 128.527 15.189Q128.394 14.699 128.093 14.314Q127.792 13.929 127.302 13.691Q126.812 13.453 126.112 13.453ZM155.932 22.091Q156.408 22.091 156.793 22Q157.178 21.909 157.5 21.741Q157.822 21.573 158.109 21.321Q158.396 21.069 158.676 20.733L158.676 14.573Q158.172 14.027 157.605 13.81Q157.038 13.593 156.408 13.593Q155.806 13.593 155.302 13.831Q154.798 14.069 154.427 14.594Q154.056 15.119 153.846 15.959Q153.636 16.799 153.636 17.989Q153.636 19.137 153.804 19.921Q153.972 20.705 154.273 21.188Q154.574 21.671 154.994 21.881Q155.414 22.091 155.932 22.091ZM70.644 22.553Q71.484 22.553 72.114 22.259Q72.744 21.965 73.388 21.307L73.388 19.319Q72.086 19.319 71.246 19.4884Q70.406 19.6578 69.916 19.9121Q69.426 20.1664 69.237 20.4912Q69.048 20.8159 69.048 21.1972Q69.048 21.9458 69.454 22.2494Q69.86 22.553 70.644 22.553ZM141.554 22.259Q140.924 22.553 140.084 22.553Q139.3 22.553 138.894 22.2494Q138.488 21.9458 138.488 21.1972Q138.488 20.8159 138.677 20.4912Q138.866 20.1664 139.356 19.9121Q139.846 19.6578 140.686 19.4884Q141.526 19.319 142.828 19.319L142.828 21.307Q142.184 21.965 141.554 22.259ZM198.723 25.1274Q198.94 25.3418 198.94 25.6993Q198.94 26.0281 198.8 26.307Q198.66 26.5859 198.303 26.786Q197.946 26.9862 197.344 27.1006Q196.742 27.215 195.804 27.215Q194.936 27.215 194.369 27.1098Q193.802 27.0046 193.466 26.822Q193.13 26.6395 192.997 26.3869Q192.864 26.1344 192.864 25.8255Q192.864 25.3904 193.123 25.0465Q193.382 24.7027 193.788 24.422Q194.39 24.541 195.006 24.541L196.196 24.541Q196.77 24.541 197.267 24.5982Q197.764 24.6554 198.135 24.7841Q198.506 24.9129 198.723 25.1274Z" />
      </g>
      <g id="Tech-Conference-2023" fill="#171716">
        <path d="M33.45 37.37L33.45 52.23L35.92 52.23L35.92 44.81Q36.42 44.31 36.98 44.02Q37.54 43.73 38.18 43.73Q39.05 43.73 39.485 44.245Q39.92 44.76 39.92 45.7L39.92 52.23L42.39 52.23L42.39 45.7Q42.39 44.84 42.165 44.125Q41.94 43.41 41.505 42.895Q41.07 42.38 40.42 42.095Q39.77 41.81 38.93 41.81Q37.96 41.81 37.24 42.16Q36.52 42.51 35.92 43.08L35.92 37.37L33.45 37.37ZM85.27 43.83L85.27 52.23L87.74 52.23L87.74 43.82L90.33 43.82L90.33 42.06L87.66 42.06L87.66 41.38Q87.66 40.81 87.785 40.425Q87.91 40.04 88.15 39.805Q88.39 39.57 88.735 39.475Q89.08 39.38 89.52 39.38Q89.85 39.38 90.1 39.31Q90.35 39.24 90.37 38.95L90.42 37.71Q89.81 37.52 89.1 37.52Q88.21 37.52 87.5 37.78Q86.79 38.04 86.295 38.53Q85.8 39.02 85.535 39.72Q85.27 40.42 85.27 41.3L85.27 42.06L83.74 42.06L83.74 43.07Q83.74 43.34 83.915 43.49Q84.09 43.64 84.38 43.69L85.27 43.83ZM58.76 48.82Q58.98 48.82 59.14 48.99L60.2 50.14Q59.32 51.23 58.035 51.81Q56.75 52.39 54.95 52.39Q53.34 52.39 52.055 51.84Q50.77 51.29 49.86 50.31Q48.95 49.33 48.465 47.97Q47.98 46.61 47.98 45Q47.98 43.37 48.52 42.015Q49.06 40.66 50.04 39.68Q51.02 38.7 52.385 38.155Q53.75 37.61 55.4 37.61Q57.01 37.61 58.215 38.125Q59.42 38.64 60.28 39.49L59.38 40.74Q59.3 40.86 59.175 40.95Q59.05 41.04 58.83 41.04Q58.6 41.04 58.36 40.86Q58.12 40.68 57.75 40.47Q57.38 40.26 56.815 40.08Q56.25 39.9 55.38 39.9Q54.36 39.9 53.505 40.255Q52.65 40.61 52.035 41.27Q51.42 41.93 51.075 42.875Q50.73 43.82 50.73 45Q50.73 46.22 51.075 47.17Q51.42 48.12 52.01 48.77Q52.6 49.42 53.4 49.765Q54.2 50.11 55.12 50.11Q55.67 50.11 56.115 50.05Q56.56 49.99 56.935 49.86Q57.31 49.73 57.645 49.525Q57.98 49.32 58.31 49.02Q58.41 48.93 58.52 48.875Q58.63 48.82 58.76 48.82ZM161.55 37.61Q162.55 37.61 163.38 37.905Q164.21 38.2 164.8 38.74Q165.39 39.28 165.72 40.04Q166.05 40.8 166.05 41.73Q166.05 42.53 165.815 43.21Q165.58 43.89 165.185 44.51Q164.79 45.13 164.26 45.71Q163.73 46.29 163.15 46.89L159.89 50.22Q160.37 50.08 160.83 50.005Q161.29 49.93 161.71 49.93L165.42 49.93Q165.82 49.93 166.055 50.155Q166.29 50.38 166.29 50.75L166.29 52.23L156.37 52.23L156.37 51.41Q156.37 51.16 156.475 50.89Q156.58 50.62 156.81 50.39L161.2 45.99Q161.75 45.43 162.185 44.92Q162.62 44.41 162.915 43.91Q163.21 43.41 163.365 42.895Q163.52 42.38 163.52 41.81Q163.52 41.29 163.37 40.895Q163.22 40.5 162.94 40.23Q162.66 39.96 162.275 39.825Q161.89 39.69 161.41 39.69Q160.52 39.69 159.945 40.14Q159.37 40.59 159.14 41.35Q159.03 41.73 158.81 41.895Q158.59 42.06 158.25 42.06Q158.1 42.06 157.92 42.03L156.62 41.8Q156.77 40.76 157.2 39.975Q157.63 39.19 158.275 38.665Q158.92 38.14 159.755 37.875Q160.59 37.61 161.55 37.61ZM177.825 48.285Q178.23 46.89 178.23 45Q178.23 43.1 177.825 41.71Q177.42 40.32 176.705 39.41Q175.99 38.5 175.015 38.055Q174.04 37.61 172.91 37.61Q171.78 37.61 170.815 38.055Q169.85 38.5 169.14 39.41Q168.43 40.32 168.03 41.71Q167.63 43.1 167.63 45Q167.63 46.89 168.03 48.285Q168.43 49.68 169.14 50.59Q169.85 51.5 170.815 51.945Q171.78 52.39 172.91 52.39Q174.04 52.39 175.015 51.945Q175.99 51.5 176.705 50.59Q177.42 49.68 177.825 48.285ZM184.75 37.61Q185.75 37.61 186.58 37.905Q187.41 38.2 188 38.74Q188.59 39.28 188.92 40.04Q189.25 40.8 189.25 41.73Q189.25 42.53 189.015 43.21Q188.78 43.89 188.385 44.51Q187.99 45.13 187.46 45.71Q186.93 46.29 186.35 46.89L183.09 50.22Q183.57 50.08 184.03 50.005Q184.49 49.93 184.91 49.93L188.62 49.93Q189.02 49.93 189.255 50.155Q189.49 50.38 189.49 50.75L189.49 52.23L179.57 52.23L179.57 51.41Q179.57 51.16 179.675 50.89Q179.78 50.62 180.01 50.39L184.4 45.99Q184.95 45.43 185.385 44.92Q185.82 44.41 186.115 43.91Q186.41 43.41 186.565 42.895Q186.72 42.38 186.72 41.81Q186.72 41.29 186.57 40.895Q186.42 40.5 186.14 40.23Q185.86 39.96 185.475 39.825Q185.09 39.69 184.61 39.69Q183.72 39.69 183.145 40.14Q182.57 40.59 182.34 41.35Q182.23 41.73 182.01 41.895Q181.79 42.06 181.45 42.06Q181.3 42.06 181.12 42.03L179.82 41.8Q179.97 40.76 180.4 39.975Q180.83 39.19 181.475 38.665Q182.12 38.14 182.955 37.875Q183.79 37.61 184.75 37.61ZM198.385 37.895Q197.58 37.61 196.58 37.61Q195.62 37.61 194.785 37.8751Q193.95 38.1402 193.305 38.6653Q192.66 39.1905 192.23 39.9757Q191.8 40.7609 191.65 41.8012L192.95 42.0277Q193.13 42.0572 193.29 42.0572Q193.63 42.0572 193.84 41.8924Q194.05 41.7277 194.17 41.348Q194.4 40.6189 194.98 40.1545Q195.56 39.69 196.44 39.69Q197.41 39.69 197.97 40.215Q198.53 40.74 198.53 41.77Q198.53 42.25 198.39 42.65Q198.25 43.05 197.895 43.335Q197.54 43.62 196.94 43.78Q196.34 43.94 195.43 43.94L195.43 45.71Q196.53 45.71 197.185 45.88Q197.84 46.05 198.19 46.35Q198.54 46.65 198.65 47.075Q198.76 47.5 198.76 48.02Q198.76 48.43 198.605 48.835Q198.45 49.24 198.135 49.57Q197.82 49.9 197.35 50.105Q196.88 50.31 196.25 50.31Q195.69 50.31 195.285 50.145Q194.88 49.98 194.58 49.715Q194.28 49.45 194.065 49.11Q193.85 48.77 193.67 48.42Q193.56 48.21 193.355 48.1Q193.15 47.99 192.89 47.99Q192.6 47.99 192.32 48.11L191.23 48.56Q191.53 49.49 191.95 50.2Q192.37 50.91 192.97 51.4Q193.57 51.89 194.38 52.14Q195.19 52.39 196.28 52.39Q197.28 52.39 198.175 52.1Q199.07 51.81 199.75 51.245Q200.43 50.68 200.83 49.85Q201.23 49.02 201.23 47.94Q201.23 46.67 200.59 45.83Q199.95 44.99 198.65 44.58Q199.19 44.4 199.615 44.13Q200.04 43.86 200.335 43.47Q200.63 43.08 200.785 42.555Q200.94 42.03 200.94 41.34Q200.94 40.55 200.635 39.87Q200.33 39.19 199.76 38.685Q199.19 38.18 198.385 37.895ZM11.65 39.98L11.65 37.77L0.24 37.77L0.24 39.98L4.61 39.98L4.61 52.23L7.3 52.23L7.3 39.98L11.65 39.98ZM175.45 42.4Q175.68 43.43 175.68 45Q175.68 46.57 175.45 47.6Q175.22 48.63 174.835 49.24Q174.45 49.85 173.95 50.095Q173.45 50.34 172.91 50.34Q172.38 50.34 171.885 50.095Q171.39 49.85 171.01 49.24Q170.63 48.63 170.405 47.6Q170.18 46.57 170.18 45Q170.18 43.43 170.405 42.4Q170.63 41.37 171.01 40.76Q171.39 40.15 171.885 39.905Q172.38 39.66 172.91 39.66Q173.45 39.66 173.95 39.905Q174.45 40.15 174.835 40.76Q175.22 41.37 175.45 42.4ZM103.98 41.97L102.53 41.97L102.53 52.23L105 52.23L105 45.84Q105.38 45.02 105.93 44.595Q106.48 44.17 107.25 44.17Q107.68 44.17 107.94 44.24Q108.2 44.31 108.35 44.31Q108.52 44.31 108.62 44.235Q108.72 44.16 108.75 43.98L109.07 42.13Q108.57 41.78 107.81 41.78Q106.89 41.78 106.15 42.33Q105.41 42.88 104.86 43.83L104.71 42.59Q104.66 42.25 104.51 42.11Q104.36 41.97 103.98 41.97ZM19.245 42.12Q18.43 41.81 17.46 41.81Q16.31 41.81 15.395 42.21Q14.48 42.61 13.845 43.295Q13.21 43.98 12.87 44.905Q12.53 45.83 12.53 46.88Q12.53 48.23 12.92 49.255Q13.31 50.28 13.99 50.975Q14.67 51.67 15.59 52.025Q16.51 52.38 17.58 52.38Q18.12 52.38 18.695 52.3Q19.27 52.22 19.825 52.025Q20.38 51.83 20.89 51.505Q21.4 51.18 21.81 50.7L21.09 49.8Q21.01 49.69 20.9 49.63Q20.79 49.57 20.64 49.57Q20.41 49.57 20.165 49.71Q19.92 49.85 19.595 50.02Q19.27 50.19 18.835 50.33Q18.4 50.47 17.8 50.47Q16.58 50.47 15.84 49.73Q15.1 48.99 14.99 47.41L21.33 47.41Q21.5 47.41 21.61 47.365Q21.72 47.32 21.785 47.215Q21.85 47.11 21.875 46.925Q21.9 46.74 21.9 46.46Q21.9 45.35 21.57 44.485Q21.24 43.62 20.65 43.025Q20.06 42.43 19.245 42.12ZM31.12 44.14Q31.01 44.28 30.905 44.36Q30.8 44.44 30.6 44.44Q30.41 44.44 30.23 44.325Q30.05 44.21 29.8 44.065Q29.55 43.92 29.205 43.805Q28.86 43.69 28.35 43.69Q27.7 43.69 27.21 43.925Q26.72 44.16 26.395 44.6Q26.07 45.04 25.91 45.665Q25.75 46.29 25.75 47.08Q25.75 47.9 25.925 48.54Q26.1 49.18 26.43 49.615Q26.76 50.05 27.23 50.275Q27.7 50.5 28.29 50.5Q28.88 50.5 29.245 50.355Q29.61 50.21 29.86 50.035Q30.11 49.86 30.295 49.715Q30.48 49.57 30.71 49.57Q31.01 49.57 31.16 49.8L31.87 50.7Q31.46 51.18 30.98 51.505Q30.5 51.83 29.985 52.025Q29.47 52.22 28.92 52.3Q28.37 52.38 27.83 52.38Q26.88 52.38 26.04 52.025Q25.2 51.67 24.575 50.99Q23.95 50.31 23.585 49.325Q23.22 48.34 23.22 47.08Q23.22 45.95 23.545 44.985Q23.87 44.02 24.5 43.315Q25.13 42.61 26.06 42.21Q26.99 41.81 28.2 41.81Q29.35 41.81 30.215 42.18Q31.08 42.55 31.77 43.24L31.12 44.14ZM68.555 42.18Q67.62 41.81 66.47 41.81Q65.32 41.81 64.38 42.18Q63.44 42.55 62.775 43.23Q62.11 43.91 61.745 44.89Q61.38 45.87 61.38 47.08Q61.38 48.3 61.745 49.28Q62.11 50.26 62.775 50.95Q63.44 51.64 64.38 52.01Q65.32 52.38 66.47 52.38Q67.62 52.38 68.555 52.01Q69.49 51.64 70.15 50.95Q70.81 50.26 71.17 49.28Q71.53 48.3 71.53 47.08Q71.53 45.87 71.17 44.89Q70.81 43.91 70.15 43.23Q69.49 42.55 68.555 42.18ZM73.46 41.97L74.97 41.97Q75.45 41.97 75.6 42.42L75.77 43.23Q76.08 42.91 76.425 42.65Q76.77 42.39 77.155 42.2Q77.54 42.01 77.98 41.91Q78.42 41.81 78.94 41.81Q79.78 41.81 80.43 42.095Q81.08 42.38 81.515 42.895Q81.95 43.41 82.175 44.125Q82.4 44.84 82.4 45.7L82.4 52.23L79.93 52.23L79.93 45.7Q79.93 44.76 79.495 44.245Q79.06 43.73 78.19 43.73Q77.55 43.73 76.99 44.02Q76.43 44.31 75.93 44.81L75.93 52.23L73.46 52.23L73.46 41.97ZM96.08 41.81Q97.05 41.81 97.865 42.12Q98.68 42.43 99.27 43.025Q99.86 43.62 100.19 44.485Q100.52 45.35 100.52 46.46Q100.52 46.74 100.495 46.925Q100.47 47.11 100.405 47.215Q100.34 47.32 100.23 47.365Q100.12 47.41 99.95 47.41L93.61 47.41Q93.72 48.99 94.46 49.73Q95.2 50.47 96.42 50.47Q97.02 50.47 97.455 50.33Q97.89 50.19 98.215 50.02Q98.54 49.85 98.785 49.71Q99.03 49.57 99.26 49.57Q99.41 49.57 99.52 49.63Q99.63 49.69 99.71 49.8L100.43 50.7Q100.02 51.18 99.51 51.505Q99 51.83 98.445 52.025Q97.89 52.22 97.315 52.3Q96.74 52.38 96.2 52.38Q95.13 52.38 94.21 52.025Q93.29 51.67 92.61 50.975Q91.93 50.28 91.54 49.255Q91.15 48.23 91.15 46.88Q91.15 45.83 91.49 44.905Q91.83 43.98 92.465 43.295Q93.1 42.61 94.015 42.21Q94.93 41.81 96.08 41.81ZM114.94 41.81Q115.91 41.81 116.725 42.12Q117.54 42.43 118.13 43.025Q118.72 43.62 119.05 44.485Q119.38 45.35 119.38 46.46Q119.38 46.74 119.355 46.925Q119.33 47.11 119.265 47.215Q119.2 47.32 119.09 47.365Q118.98 47.41 118.81 47.41L112.47 47.41Q112.58 48.99 113.32 49.73Q114.06 50.47 115.28 50.47Q115.88 50.47 116.315 50.33Q116.75 50.19 117.075 50.02Q117.4 49.85 117.645 49.71Q117.89 49.57 118.12 49.57Q118.27 49.57 118.38 49.63Q118.49 49.69 118.57 49.8L119.29 50.7Q118.88 51.18 118.37 51.505Q117.86 51.83 117.305 52.025Q116.75 52.22 116.175 52.3Q115.6 52.38 115.06 52.38Q113.99 52.38 113.07 52.025Q112.15 51.67 111.47 50.975Q110.79 50.28 110.4 49.255Q110.01 48.23 110.01 46.88Q110.01 45.83 110.35 44.905Q110.69 43.98 111.325 43.295Q111.96 42.61 112.875 42.21Q113.79 41.81 114.94 41.81ZM122.9 41.97L121.39 41.97L121.39 52.23L123.86 52.23L123.86 44.81Q124.36 44.31 124.92 44.02Q125.48 43.73 126.12 43.73Q126.99 43.73 127.425 44.245Q127.86 44.76 127.86 45.7L127.86 52.23L130.33 52.23L130.33 45.7Q130.33 44.84 130.105 44.125Q129.88 43.41 129.445 42.895Q129.01 42.38 128.36 42.095Q127.71 41.81 126.87 41.81Q126.35 41.81 125.91 41.91Q125.47 42.01 125.085 42.2Q124.7 42.39 124.355 42.65Q124.01 42.91 123.7 43.23L123.53 42.42Q123.38 41.97 122.9 41.97ZM139.97 44.14Q139.86 44.28 139.755 44.36Q139.65 44.44 139.45 44.44Q139.26 44.44 139.08 44.325Q138.9 44.21 138.65 44.065Q138.4 43.92 138.055 43.805Q137.71 43.69 137.2 43.69Q136.55 43.69 136.06 43.925Q135.57 44.16 135.245 44.6Q134.92 45.04 134.76 45.665Q134.6 46.29 134.6 47.08Q134.6 47.9 134.775 48.54Q134.95 49.18 135.28 49.615Q135.61 50.05 136.08 50.275Q136.55 50.5 137.14 50.5Q137.73 50.5 138.095 50.355Q138.46 50.21 138.71 50.035Q138.96 49.86 139.145 49.715Q139.33 49.57 139.56 49.57Q139.86 49.57 140.01 49.8L140.72 50.7Q140.31 51.18 139.83 51.505Q139.35 51.83 138.835 52.025Q138.32 52.22 137.77 52.3Q137.22 52.38 136.68 52.38Q135.73 52.38 134.89 52.025Q134.05 51.67 133.425 50.99Q132.8 50.31 132.435 49.325Q132.07 48.34 132.07 47.08Q132.07 45.95 132.395 44.985Q132.72 44.02 133.35 43.315Q133.98 42.61 134.91 42.21Q135.84 41.81 137.05 41.81Q138.2 41.81 139.065 42.18Q139.93 42.55 140.62 43.24L139.97 44.14ZM148.325 42.12Q147.51 41.81 146.54 41.81Q145.39 41.81 144.475 42.21Q143.56 42.61 142.925 43.295Q142.29 43.98 141.95 44.905Q141.61 45.83 141.61 46.88Q141.61 48.23 142 49.255Q142.39 50.28 143.07 50.975Q143.75 51.67 144.67 52.025Q145.59 52.38 146.66 52.38Q147.2 52.38 147.775 52.3Q148.35 52.22 148.905 52.025Q149.46 51.83 149.97 51.505Q150.48 51.18 150.89 50.7L150.17 49.8Q150.09 49.69 149.98 49.63Q149.87 49.57 149.72 49.57Q149.49 49.57 149.245 49.71Q149 49.85 148.675 50.02Q148.35 50.19 147.915 50.33Q147.48 50.47 146.88 50.47Q145.66 50.47 144.92 49.73Q144.18 48.99 144.07 47.41L150.41 47.41Q150.58 47.41 150.69 47.365Q150.8 47.32 150.865 47.215Q150.93 47.11 150.955 46.925Q150.98 46.74 150.98 46.46Q150.98 45.35 150.65 44.485Q150.32 43.62 149.73 43.025Q149.14 42.43 148.325 42.12ZM15.82 44.19Q16.43 43.58 17.51 43.58Q18.06 43.58 18.47 43.765Q18.88 43.95 19.15 44.27Q19.42 44.59 19.55 45.015Q19.68 45.44 19.68 45.92L15.04 45.92Q15.21 44.8 15.82 44.19ZM96.13 43.58Q95.05 43.58 94.44 44.19Q93.83 44.8 93.66 45.92L98.3 45.92Q98.3 45.44 98.17 45.015Q98.04 44.59 97.77 44.27Q97.5 43.95 97.09 43.765Q96.68 43.58 96.13 43.58ZM114.99 43.58Q113.91 43.58 113.3 44.19Q112.69 44.8 112.52 45.92L117.16 45.92Q117.16 45.44 117.03 45.015Q116.9 44.59 116.63 44.27Q116.36 43.95 115.95 43.765Q115.54 43.58 114.99 43.58ZM144.9 44.19Q145.51 43.58 146.59 43.58Q147.14 43.58 147.55 43.765Q147.96 43.95 148.23 44.27Q148.5 44.59 148.63 45.015Q148.76 45.44 148.76 45.92L144.12 45.92Q144.29 44.8 144.9 44.19ZM68.365 49.62Q67.75 50.48 66.47 50.48Q65.17 50.48 64.55 49.615Q63.93 48.75 63.93 47.1Q63.93 45.45 64.55 44.575Q65.17 43.7 66.47 43.7Q67.75 43.7 68.365 44.57Q68.98 45.44 68.98 47.1Q68.98 48.76 68.365 49.62Z" />
      </g>
    </g>
    <g id="Polygon-2">
      <use stroke="none" fill="#D3D3D3" fill-opacity="0" xlink:href="#path_2" fill-rule="evenodd" />
      <g clip-path="url(#clip_2)">
        <use xlink:href="#path_2" fill="none" stroke="#FF8705" stroke-width="4" />
      </g>
    </g>
  </g>
</svg>