<?xml version="1.0" encoding="utf-8"?>
<svg width="125px" height="34px" viewBox="0 0 125 34" version="1.1" xmlns:xlink="http://www.w3.org/1999/xlink" xmlns="http://www.w3.org/2000/svg">
  <defs>
    <path d="M0 0L125 0L125 34L0 34L0 0Z" id="path_1" />
    <clipPath id="mask_1">
      <use xlink:href="#path_1" />
    </clipPath>
  </defs>
  <g id="Mozilla_Foundation_logo_(pre_2017)">
    <path d="M0 0L125 0L125 34L0 34L0 0Z" id="Background" fill="#FFFFFF" fill-opacity="0" fill-rule="evenodd" stroke="none" />
    <g clip-path="url(#mask_1)">
      <path d="M116.261 22.5989C112.392 22.5989 111.025 23.3054 111.025 25.8665C111.025 27.5333 112.084 28.6704 113.505 28.6704C114.547 28.6704 115.6 28.125 116.426 27.2022L116.518 22.5989L116.254 22.5989L116.261 22.5989ZM108.997 11.3392C111.08 10.4572 112.866 10.0808 114.839 10.0808C118.444 10.0808 120.902 11.4165 121.75 13.8009C122.028 14.6796 122.156 15.3464 122.131 17.6535L121.995 24.8509L121.995 25.2307C121.995 27.5268 122.375 28.4099 124.012 29.6242L121.036 33.0683C119.724 32.5197 118.567 31.556 118.016 30.4742C117.604 30.897 117.14 31.3065 116.715 31.6001C115.678 32.3541 114.158 32.7703 112.405 32.7703C107.643 32.7703 105.053 30.3417 105.053 26.0696C105.053 21.0359 108.536 18.6956 115.337 18.6956C115.746 18.6956 116.134 18.6956 116.594 18.7433L116.594 17.869C116.594 15.4735 116.13 14.6787 114.07 14.6787C112.295 14.6787 110.19 15.553 107.897 17.1073L105.516 13.0891C106.651 12.376 107.489 11.9632 108.999 11.3339M100.214 6.56509L100.214 23.2339C100.214 26.9209 100.262 27.4177 100.605 28.0028C100.802 28.3825 101.256 28.5878 101.718 28.5878C101.93 28.5878 102.058 28.5878 102.353 28.5107L103.307 31.8555C102.353 32.2308 101.179 32.4394 99.9669 32.4394C97.586 32.4394 95.657 31.3134 94.9846 29.5141C94.5569 28.4235 94.4874 27.7479 94.4874 24.7011L94.4874 8.69461C94.4874 5.89072 94.4036 4.17968 94.1876 2.24786L99.9085 0.956302C100.139 2.12643 100.208 3.5063 100.208 6.53098M88.6343 6.53095L88.6343 23.1998C88.6343 26.8868 88.6783 27.3836 89.0146 27.9686C89.2262 28.3484 89.6793 28.5537 90.15 28.5537C90.3506 28.5537 90.4718 28.5537 90.775 28.4765L91.7318 31.8213C90.775 32.1966 89.6043 32.4053 88.3918 32.4053C85.9998 32.4053 84.0818 31.2793 83.4205 29.48C83.0005 28.3893 82.909 27.7137 82.909 24.667L82.909 8.66048C82.909 5.85658 82.8363 4.14554 82.6279 2.21372L88.3598 0.922165C88.5605 2.0923 88.6486 3.47217 88.6486 6.49684M78.4523 9.96307L78.4523 31.9306L72.8527 31.9306L72.8527 10.8462L78.4523 9.96417L78.4523 9.96307ZM79.1093 4.56504C79.1093 6.49686 77.5771 8.03127 75.6371 8.03127C73.7632 8.03127 72.22 6.48582 72.22 4.56504C72.22 2.64426 73.8073 1.08777 75.7252 1.08777C77.5991 1.08777 79.0983 2.64426 79.0983 4.56504M69.6296 10.4709L69.6296 14.3235L60.172 28.0118L69.9934 28.0118L68.6486 31.9085L52.8858 31.9085L52.8858 28.4312L62.9497 14.4118L53.7235 14.4118L53.7235 10.4709L69.5966 10.4709M39.063 16.3767C38.6794 17.5137 38.4744 19.015 38.4744 21.1566C38.4744 23.6182 38.7257 25.4728 39.1832 26.5546C39.6869 27.7247 40.9468 28.3098 42.0271 28.3098C44.4521 28.3098 45.4883 26.1351 45.4883 21.0682C45.4883 18.176 45.1113 16.2884 44.364 15.328C43.826 14.6215 42.953 14.202 41.9499 14.202C40.6051 14.202 39.5249 15.0355 39.0729 16.3767L39.063 16.3767ZM49.1379 13.2858C50.8465 15.2949 51.6071 17.6352 51.6071 21.1124C51.6071 24.7994 50.7627 27.3163 48.9175 29.4027C47.2971 31.2462 45.1587 32.3722 41.8628 32.3722C36.0427 32.3722 32.2508 28.0118 32.2508 21.3332C32.2508 14.5884 36.0868 10.0735 41.8628 10.0735C44.9162 10.0735 47.2971 11.1233 49.1379 13.2968M6.03834 10.1176C6.41091 10.6938 6.57515 11.2083 6.78349 12.2923C8.23851 10.8683 10.0353 10.1176 11.9973 10.1176C13.772 10.1176 15.2271 10.6938 16.3514 11.8728C16.6545 12.1676 16.9466 12.5484 17.1991 12.9215C19.1611 10.9124 20.9138 10.1176 23.2617 10.1176C24.9371 10.1176 26.5245 10.6188 27.4834 11.4533C28.696 12.4998 29.0707 13.7605 29.0707 16.6858L29.0707 31.9196L23.6364 31.9196L23.6364 17.7897C23.6364 15.2287 23.3333 14.7319 21.8728 14.7319C20.8278 14.7319 19.3595 15.445 18.158 16.5313L18.158 31.9858L12.856 31.9858L12.856 18.0767C12.856 15.4053 12.4691 14.7761 10.916 14.7761C9.88203 14.7761 8.44685 15.3125 7.24535 16.4098L7.24535 31.9748L1.77798 31.9748L1.77798 17.0722C1.77798 13.9813 1.56634 12.6345 0.977712 11.5858L6.04826 10.2059" id="Shape" fill="#B2B2B2" fill-rule="evenodd" stroke="none" />
    </g>
  </g>
</svg>