<?xml version="1.0" encoding="utf-8"?>
<svg width="128px" height="25px" viewBox="0 0 128 25" version="1.1" xmlns:xlink="http://www.w3.org/1999/xlink" xmlns="http://www.w3.org/2000/svg">
  <g id="Naver_Logotype">
    <path d="M36.8467 0L27.2136 25L35.4017 25L36.5651 21.6912L45.7981 21.6912L46.9615 25L55.1496 25L45.5165 0L36.8467 0L36.8467 0ZM38.4357 15.6863L41.1816 7.87677L43.9276 15.6863L38.4357 15.6863L38.4357 15.6863ZM89.2267 15.5024L100.425 15.5024L100.425 9.49755L89.2267 9.49755L89.2267 6.12745L100.546 6.12745L100.546 0L81.3998 0L81.3998 25L100.786 25L100.786 18.8725L89.2267 18.8725L89.2267 15.5024ZM64.9031 16.4384L59.1233 0L50.9351 0L60.5682 25L69.238 25L78.8711 0L70.683 0L64.9031 16.4384ZM16.7375 13.3803L7.58607 0L0 0L0 25L7.94731 25L7.94731 11.6197L17.0988 25L24.6849 25L24.6849 0L16.7375 0L16.7375 13.3803ZM121.79 16.4236L122.535 16.1063C125.389 14.8901 126.841 12.2588 126.841 8.91925C126.841 5.76123 125.71 3.42497 123.478 1.97533C121.403 0.62765 118.712 0 115.009 0L104.64 0L104.64 25L112.346 25L112.346 18.0147L115.116 18.0147L119.812 25L128 25L121.79 16.4236L121.79 16.4236ZM116.44 11.6422L112.226 11.6422L112.226 6.37256L116.44 6.37256C117.87 6.37256 119.029 7.55221 119.029 9.00736C119.029 10.4625 117.87 11.6422 116.44 11.6422L116.44 11.6422Z" id="Group" fill="#989899" stroke="none" />
  </g>
</svg>